<?xml version="1.0" encoding="utf-8"?>
<!-- Generator: Adobe Illustrator 26.3.1, SVG Export Plug-In . SVG Version: 6.00 Build 0)  -->
<svg version="1.1" id="Layer_1" xmlns="http://www.w3.org/2000/svg" xmlns:xlink="http://www.w3.org/1999/xlink" x="0px" y="0px"
	 viewBox="0 0 211.3 296.9" style="enable-background:new 0 0 211.3 296.9;" xml:space="preserve">
<g>
	<path d="M105.6,160.2c-1.9,22.4-14.5,38.1-14.5,38.1h14.5h14.5C120.1,198.3,107.5,182.6,105.6,160.2z"/>
	<path d="M126.7,134.9c-2.9,0-5.6,0.6-8.1,1.6c-0.1-0.1-0.1-0.1-0.2-0.2c5-3.8,8.3-9.9,8.3-16.7c0-11.6-9.4-21-21-21
		c-11.6,0-21,9.4-21,21c0,7.3,3.7,13.7,9.4,17.5c-2.8-1.4-6-2.2-9.4-2.2c-11.6,0-21,9.4-21,21c0,11.6,9.4,21,21,21
		c11.3,0,20.5-8.9,21-20.1c0,0,0,0,0,0c0.5,11.2,9.7,20.1,21,20.1c11.6,0,21-9.4,21-21C147.6,144.3,138.2,134.9,126.7,134.9z"/>
</g>
</svg>
