<?xml version="1.0" encoding="utf-8"?>
<!-- Generator: Adobe Illustrator 26.3.1, SVG Export Plug-In . SVG Version: 6.00 Build 0)  -->
<svg version="1.1" id="Layer_1" xmlns="http://www.w3.org/2000/svg" xmlns:xlink="http://www.w3.org/1999/xlink" x="0px" y="0px"
	 viewBox="0 0 211.3 296.9" style="enable-background:new 0 0 211.3 296.9;" xml:space="preserve">
<style type="text/css">
	.st0{fill:#FF2601;}
</style>
<path class="st0" d="M148.6,148.5C148.6,148.4,148.6,148.4,148.6,148.5L148.6,148.5c-23.5-13.1-42.4-52.6-43-53.9v0c0,0,0,0,0,0
	c0,0,0,0,0,0v0c-0.6,1.3-19.5,40.8-43,53.9h0c0,0,0,0,0,0c0,0,0,0,0,0h0c23.5,13,42.4,52.6,43,53.9v0c0,0,0,0,0,0c0,0,0,0,0,0v0
	C106.3,201,125.1,161.5,148.6,148.5L148.6,148.5C148.6,148.5,148.6,148.5,148.6,148.5z"/>
</svg>
