<?xml version="1.0" encoding="utf-8"?>
<!-- Generator: Adobe Illustrator 26.3.1, SVG Export Plug-In . SVG Version: 6.00 Build 0)  -->
<svg version="1.1" id="Layer_1" xmlns="http://www.w3.org/2000/svg" xmlns:xlink="http://www.w3.org/1999/xlink" x="0px" y="0px"
	 viewBox="0 0 211.3 296.9" style="enable-background:new 0 0 211.3 296.9;" xml:space="preserve">
<style type="text/css">
	.st0{fill:#FFFFFF;}
	.st1{fill:#F1F1F1;}
	.st2{fill:#E2E2E2;}
	.st3{fill:#D4D4D4;}
	.st4{fill:#C5C5C5;}
	.st5{fill:#B7B7B7;}
	.st6{fill:#A8A8A8;}
	.st7{fill:#9A9A9A;}
	.st8{fill:#8B8B8B;}
	.st9{fill:#7D7D7D;}
	.st10{fill:#6E6E6E;}
	.st11{fill:#606060;}
	.st12{fill:#006790;}
	.st13{fill:#FA2630;}
	.st14{fill:#F09D2E;}
</style>
<g>
	<g>
		<path class="st0" d="M47.6,186.4c0.6-0.5,1.2-1,1.6-1.7c1.4-0.1,2.8-0.6,4.2-1.2c2.3-1.1,4.4-2.9,5.7-4.9c3.3-5,2.4-10.3,1.8-14.5
			c-0.2-1.1-0.3-2.1-0.4-3c-0.2-2.4,0.4-5.3,1.4-6.6c0.9-1.1,2.1-1.8,5.4-1.5c1.8,0.2,4.1,1.4,6.5,3.5c0.3,0.3,0.7,0.7,1.1,1.1
			c1,1.1,2.3,2.4,4.1,3.3c0.1,0.5,0.2,1,0.4,1.4c0,0,0,0.1,0.1,0.1c-0.2,1.1-0.8,2.6-1.3,3.8l-0.2,0.4c-0.9,2.2-2.2,5.3-0.5,9
			c0.2,0.5,0.5,1,0.8,1.5c-0.4,0.3-0.7,0.6-1,0.9c-2,0.1-3.7,1.5-4,3.5c-1.6,0.8-2.9,2-3.8,3.4c-1.1,1.7-1.5,3.7-1.3,5.7
			c0,0,0,0,0,0c-1.3,0.9-2.2,2-2.9,3.4c-0.8,1.6-1.6,4.8,1.3,8.4c0,0.1,0,0.1-0.1,0.2l-0.1,0.3c-0.1,0.2-0.1,0.4-0.2,0.6
			c0,0,0,0,0,0l0,0.1c-0.1,0.4-0.2,0.7-0.2,1c-0.5,3,1,6.7,3.5,8.3c0.6,0.4,1.1,0.7,1.6,0.9c0.1,0.3,0.2,0.7,0.3,1c0,0,0,0,0,0
			c0.9,2.4,2.7,4.3,5.1,5.2c2.4,0.9,4.8,0.3,6.3-0.2c0.7,0.9,1.8,2.3,3.6,3.1c2.9,1.4,5.9,1.6,8.8,0.7c1.4-0.4,2.4-1.2,3-1.8
			c0,0,0,0,0,0c0.3-0.1,0.7,0.1,2.1,1c1.7,1.1,3.7,1.7,5.9,1.7c0.2,0,0.4,0,0.6,0c1.5-0.1,3.4-0.3,5.1-1.6c0.8-0.6,1.4-1.2,2-1.7
			c0.3-0.3,0.8-0.7,1.1-0.9c0.3,0.1,0.9,0.4,1.3,0.6c0.2,0.1,0.4,0.2,0.5,0.3c2.3,1.1,4.7,0.8,6.3,0.5c3.9-0.7,5.5-3.9,6.3-5.7
			c0.1-0.1,0.1-0.3,0.2-0.4c0.3,0,0.6,0,0.9,0c1.1,0,2.6,0.1,4.3-0.4c2.1-0.6,3.4-2,4.4-3.1c0.8-0.9,1.2-2,1.6-2.8
			c2.3-0.1,5.1-0.4,7.7-2.9c1.4-1.4,2.2-2.8,2.7-4.5c0.3-1.1,0.3-2.1,0.3-2.8c0.5-0.3,1.1-0.6,1.6-1.1c1.7-1.4,2.8-3,3.4-4.9
			c0.9-2.8-0.2-5.1-0.6-5.9c-0.1-0.2-0.1-0.3-0.2-0.4c0,0,0.1-0.1,0.1-0.1c1.8-1.8,2.8-4.2,2.6-6.5c-0.1-1.5-0.7-2.9-1.6-4.1
			c0.1-0.3,0.2-0.5,0.2-0.8c0.1-0.4,0.1-0.8,0.1-1.2c0,0,0,0,0-0.1c0-0.1,0-0.2,0-0.3c0-0.2,0-0.5-0.1-0.7c0-0.1,0-0.2-0.1-0.3
			c-0.1-0.2-0.1-0.5-0.2-0.6c0-0.1,0-0.1-0.1-0.2c-0.2-0.5-0.4-0.8-0.7-1.2c0.2-1.5-0.1-3-0.9-4.2c-1.2-1.9-3.3-3.1-5.9-3.1
			c-0.3,0-0.5,0-0.8,0c-1.1-1.7-3.1-3.1-5.2-3.5c0.4-0.8,0.7-1.6,1.2-2.3c1.1-1.9,2.7-3.2,5.7-4.5c1.8-0.8,5.4-1.9,8.8,0.2
			c0.9,0.6,1.2,1,0.3,5.2c-0.1,0.6-0.2,1.1-0.3,1.7c-0.7,3.8-0.7,7.4,0.1,11c0.5,2.2,1.4,4,2.3,5.7l0.2,0.4c0.1,0.2,0.2,0.4,0.3,0.7
			c-1.3,1.9-1.8,4.3-1.3,6.8c0.7,3.8,3.9,6.6,8,7.1c4.2,0.5,8.1-1.8,9.8-5.5c1.9-4.1,0.3-8.9-3.7-11.2c-0.7-0.4-1.5-0.7-2.3-0.9
			c0.1-0.8,0.2-1.5,0.5-2.2c0.7-2.1,1.8-4.1,3.2-6.5c3.3-5.6,5.3-11.7,5.4-17.1c0.3-12.4-6.7-23.7-18.3-29.4
			c-2.2-1.1-5.6-2.5-9.3-3.3c-0.1,0-0.1,0-0.2,0c-0.7-1-1.8-1.8-3.1-2c-5-0.6-9.9-0.6-14.6,0.1c0.5-1.3,1.3-2.3,2.4-3.2
			c2.2-1.7,4.8-3.1,7.6-4.5c1.1-0.6,2.3-1.2,3.5-1.8c3.2-1.7,7.5-4.1,10-8c0.3-0.5,0.6-1.1,0.9-1.6c1.2-0.3,2.4-0.9,3.4-1.8
			c2.3-2,3.6-5.1,3.4-8.2c-0.3-3.2-2.4-5.9-5.6-7.1c-3.2-1.2-6.8-0.4-9.1,1.9c-2.6,2.6-2.9,5.2-2.8,7.1c0,0.1,0,0.1,0,0.2
			c-2.2-0.3-4.6-0.9-6.5-1.4c-0.8-0.2-1.5-0.4-2.1-0.5c-5.6-1.2-11.2-1.8-16.7-1.7c-6.3,0.1-11.4,0.7-15.9,1.8
			c-1-0.6-2.2-0.8-3.3-0.4c-0.6,0.2-14.7,4.1-22.6,15.7c-3.7,4.6-6.2,10-7.2,15.4c-5.1-0.8-16.4-0.7-27.8,11.7
			c-0.1,0.1-0.1,0.1-0.2,0.2c-0.2,0.2-1.9,2.4-3.5,6.1c-3.6,6.8-5.1,14.4-4.5,22.6c0.3,3.6,1.4,7.8,3.3,12.3
			c0.5,1.2,0.8,2.3,1.1,3.4c-1.4-0.2-2.8,0-4.2,0.6c-3.5,1.4-5.4,5-4.8,8.6c0.4,2.3,2,4.4,4.1,5.6c0.6,0.3,1.1,0.6,1.7,0.7
			C43,188.2,45.7,187.8,47.6,186.4z"/>
		<path class="st1" d="M47.1,185.9c0.6-0.5,1.2-1,1.6-1.7c1.4-0.1,2.8-0.6,4.2-1.2c2.3-1.1,4.4-2.9,5.7-4.9c3.3-5,2.4-10.3,1.8-14.5
			c-0.2-1.1-0.3-2.1-0.4-3c-0.2-2.4,0.4-5.3,1.4-6.6c0.9-1.1,2.1-1.8,5.4-1.5c1.8,0.2,4.1,1.4,6.5,3.5c0.3,0.3,0.7,0.7,1.1,1.1
			c1,1.1,2.3,2.4,4.1,3.3c0.1,0.5,0.2,1,0.4,1.4c0,0,0,0.1,0.1,0.1c-0.2,1.1-0.8,2.6-1.3,3.8l-0.2,0.4c-0.9,2.2-2.2,5.3-0.5,9
			c0.2,0.5,0.5,1,0.8,1.5c-0.4,0.3-0.7,0.6-1,0.9c-2,0.1-3.7,1.5-4,3.5c-1.6,0.8-2.9,2-3.8,3.4c-1.1,1.7-1.5,3.7-1.3,5.7
			c0,0,0,0,0,0c-1.3,0.9-2.2,2-2.9,3.4c-0.8,1.6-1.6,4.8,1.3,8.4c0,0.1,0,0.1-0.1,0.2l-0.1,0.3c-0.1,0.2-0.1,0.4-0.2,0.6
			c0,0,0,0,0,0l0,0.1c-0.1,0.4-0.2,0.7-0.2,1c-0.5,3,1,6.7,3.5,8.3c0.6,0.4,1.1,0.7,1.6,0.9c0.1,0.3,0.2,0.7,0.3,1c0,0,0,0,0,0
			c0.9,2.4,2.7,4.3,5.1,5.2c2.4,0.9,4.8,0.3,6.3-0.2c0.7,0.9,1.8,2.3,3.6,3.1c2.9,1.4,5.9,1.6,8.8,0.7c1.4-0.4,2.4-1.2,3-1.8
			c0,0,0,0,0,0c0.3-0.1,0.7,0.1,2.1,1c1.7,1.1,3.7,1.7,5.9,1.7c0.2,0,0.4,0,0.6,0c1.5-0.1,3.4-0.3,5.1-1.6c0.8-0.6,1.4-1.2,2-1.7
			c0.3-0.3,0.8-0.7,1.1-0.9c0.3,0.1,0.9,0.4,1.3,0.6c0.2,0.1,0.4,0.2,0.5,0.3c2.3,1.1,4.7,0.8,6.3,0.5c3.9-0.7,5.5-3.9,6.3-5.7
			c0.1-0.1,0.1-0.3,0.2-0.4c0.3,0,0.6,0,0.9,0c1.1,0,2.6,0.1,4.3-0.4c2.1-0.6,3.4-2,4.4-3.1c0.8-0.9,1.2-2,1.6-2.8
			c2.3-0.1,5.1-0.4,7.7-2.9c1.4-1.4,2.2-2.8,2.7-4.5c0.3-1.1,0.3-2.1,0.3-2.8c0.5-0.3,1.1-0.6,1.6-1.1c1.7-1.4,2.8-3,3.4-4.9
			c0.9-2.8-0.2-5.1-0.6-5.9c-0.1-0.2-0.1-0.3-0.2-0.4c0,0,0.1-0.1,0.1-0.1c1.8-1.8,2.8-4.2,2.6-6.5c-0.1-1.5-0.7-2.9-1.6-4.1
			c0.1-0.3,0.2-0.5,0.2-0.8c0.1-0.4,0.1-0.8,0.1-1.2c0,0,0,0,0-0.1c0-0.1,0-0.2,0-0.3c0-0.2,0-0.5-0.1-0.7c0-0.1,0-0.2-0.1-0.3
			c-0.1-0.2-0.1-0.5-0.2-0.6c0-0.1,0-0.1-0.1-0.2c-0.2-0.5-0.4-0.8-0.7-1.2c0.2-1.5-0.1-3-0.9-4.2c-1.2-1.9-3.3-3.1-5.9-3.1
			c-0.3,0-0.5,0-0.8,0c-1.1-1.7-3.1-3.1-5.2-3.5c0.4-0.8,0.7-1.6,1.2-2.3c1.1-1.9,2.7-3.2,5.7-4.5c1.8-0.8,5.4-1.9,8.8,0.2
			c0.9,0.6,1.2,1,0.3,5.2c-0.1,0.6-0.2,1.1-0.3,1.7c-0.7,3.8-0.7,7.4,0.1,11c0.5,2.2,1.4,4,2.3,5.7l0.2,0.4c0.1,0.2,0.2,0.4,0.3,0.7
			c-1.3,1.9-1.8,4.3-1.3,6.8c0.7,3.8,3.9,6.6,8,7.1c4.2,0.5,8.1-1.8,9.8-5.5c1.8-4.1,0.3-8.9-3.7-11.2c-0.7-0.4-1.5-0.7-2.3-0.9
			c0.1-0.8,0.2-1.5,0.5-2.2c0.7-2.1,1.8-4.1,3.2-6.5c3.3-5.6,5.3-11.7,5.4-17.1c0.3-12.4-6.7-23.7-18.3-29.4
			c-2.2-1.1-5.6-2.5-9.3-3.3c-0.1,0-0.1,0-0.2,0c-0.7-1-1.8-1.8-3.1-2c-5-0.6-9.9-0.6-14.6,0.1c0.5-1.3,1.3-2.3,2.4-3.2
			c2.2-1.7,4.8-3.1,7.6-4.5c1.1-0.6,2.3-1.2,3.5-1.8c3.2-1.7,7.5-4.1,10-8c0.3-0.5,0.6-1.1,0.9-1.6c1.2-0.3,2.3-0.9,3.4-1.8
			c2.3-2,3.6-5.1,3.4-8.2c-0.3-3.2-2.4-5.9-5.6-7.1c-3.2-1.2-6.8-0.4-9.1,1.9c-2.6,2.6-2.9,5.2-2.8,7.1c0,0.1,0,0.1,0,0.2
			c-2.2-0.3-4.6-0.9-6.5-1.4c-0.8-0.2-1.5-0.4-2.1-0.5c-5.6-1.2-11.2-1.8-16.7-1.7c-6.3,0.1-11.4,0.7-15.9,1.8
			c-1-0.6-2.2-0.8-3.3-0.4c-0.6,0.2-14.7,4.1-22.6,15.7c-3.7,4.6-6.2,10-7.2,15.4c-5.1-0.8-16.4-0.7-27.8,11.7
			c-0.1,0.1-0.1,0.1-0.2,0.2c-0.2,0.2-1.9,2.4-3.5,6.1c-3.6,6.8-5.1,14.4-4.5,22.6c0.3,3.6,1.4,7.8,3.3,12.3
			c0.5,1.2,0.8,2.3,1.1,3.4c-1.4-0.2-2.8,0-4.2,0.6c-3.5,1.4-5.4,5-4.8,8.6c0.4,2.3,2,4.4,4.1,5.6c0.6,0.3,1.1,0.6,1.7,0.7
			C42.6,187.7,45.2,187.3,47.1,185.9z"/>
		<path class="st2" d="M46.7,185.5c0.6-0.5,1.2-1,1.6-1.7c1.4-0.1,2.8-0.6,4.2-1.2c2.3-1.1,4.4-2.9,5.7-4.9c3.3-5,2.4-10.3,1.8-14.5
			c-0.2-1.1-0.3-2.1-0.4-3c-0.2-2.4,0.4-5.3,1.4-6.6c0.9-1.1,2.1-1.8,5.4-1.5c1.8,0.2,4.1,1.4,6.5,3.5c0.3,0.3,0.7,0.7,1.1,1.1
			c1,1.1,2.3,2.4,4.1,3.3c0.1,0.5,0.2,1,0.4,1.4c0,0,0,0.1,0.1,0.1c-0.2,1.1-0.8,2.6-1.3,3.8l-0.2,0.4c-0.9,2.2-2.2,5.3-0.5,9
			c0.2,0.5,0.5,1,0.8,1.5c-0.4,0.3-0.7,0.6-1,0.9c-2,0.1-3.7,1.5-4,3.5c-1.6,0.8-2.9,2-3.8,3.4c-1.1,1.7-1.5,3.7-1.3,5.7
			c0,0,0,0,0,0c-1.3,0.9-2.2,2-2.9,3.4c-0.8,1.6-1.6,4.8,1.3,8.4c0,0.1,0,0.1-0.1,0.2l-0.1,0.3c-0.1,0.2-0.1,0.4-0.2,0.6
			c0,0,0,0,0,0.1l0,0.1c-0.1,0.4-0.2,0.7-0.2,1c-0.5,3,1,6.7,3.5,8.3c0.6,0.4,1.1,0.7,1.6,0.9c0.1,0.3,0.2,0.7,0.3,1c0,0,0,0,0,0
			c0.9,2.4,2.7,4.3,5.1,5.2c2.4,0.9,4.8,0.3,6.3-0.2c0.7,0.9,1.8,2.3,3.6,3.1c2.9,1.4,5.9,1.6,8.8,0.7c1.4-0.4,2.4-1.2,3-1.8
			c0,0,0,0,0,0c0.3-0.1,0.7,0.1,2.1,1c1.7,1.1,3.7,1.7,5.9,1.7c0.2,0,0.4,0,0.6,0c1.5-0.1,3.4-0.3,5.1-1.6c0.8-0.6,1.4-1.2,2-1.7
			c0.3-0.3,0.8-0.7,1.1-0.9c0.3,0.1,0.9,0.4,1.3,0.6c0.2,0.1,0.4,0.2,0.5,0.3c2.3,1.1,4.7,0.8,6.3,0.5c3.9-0.7,5.5-3.9,6.3-5.7
			c0.1-0.1,0.1-0.3,0.2-0.4c0.3,0,0.6,0,0.9,0c1.1,0,2.6,0.1,4.3-0.4c2.1-0.6,3.4-2,4.4-3.1c0.8-0.9,1.2-2,1.6-2.8
			c2.3-0.1,5.1-0.4,7.7-2.9c1.4-1.4,2.2-2.8,2.7-4.5c0.3-1.1,0.3-2.1,0.3-2.8c0.5-0.3,1.1-0.6,1.6-1.1c1.7-1.4,2.8-3,3.4-4.9
			c0.9-2.8-0.2-5.1-0.6-5.9c-0.1-0.2-0.1-0.3-0.2-0.4c0,0,0.1-0.1,0.1-0.1c1.8-1.8,2.8-4.2,2.6-6.5c-0.1-1.5-0.7-2.9-1.6-4.1
			c0.1-0.3,0.2-0.5,0.2-0.8c0.1-0.4,0.1-0.8,0.1-1.2c0,0,0,0,0-0.1c0-0.1,0-0.2,0-0.3c0-0.2,0-0.5-0.1-0.7c0-0.1,0-0.2-0.1-0.3
			c-0.1-0.2-0.1-0.5-0.2-0.6c0-0.1,0-0.1-0.1-0.2c-0.2-0.5-0.4-0.8-0.7-1.2c0.2-1.5-0.1-3-0.9-4.2c-1.2-1.9-3.3-3.1-5.9-3.1
			c-0.3,0-0.5,0-0.8,0c-1.1-1.7-3.1-3.1-5.2-3.5c0.4-0.8,0.7-1.6,1.2-2.3c1.1-1.9,2.7-3.2,5.7-4.5c1.8-0.8,5.4-1.9,8.8,0.2
			c0.9,0.6,1.2,1,0.3,5.2c-0.1,0.6-0.2,1.1-0.3,1.7c-0.7,3.8-0.7,7.4,0.1,11c0.5,2.2,1.4,4,2.3,5.7l0.2,0.4c0.1,0.2,0.2,0.4,0.3,0.7
			c-1.3,1.9-1.8,4.3-1.3,6.8c0.7,3.8,3.9,6.6,8,7.1c4.2,0.5,8.1-1.8,9.8-5.5c1.8-4.1,0.3-8.9-3.7-11.2c-0.7-0.4-1.5-0.7-2.3-0.9
			c0.1-0.8,0.2-1.5,0.5-2.2c0.7-2.1,1.8-4.1,3.2-6.5c3.3-5.6,5.3-11.7,5.4-17.1c0.3-12.4-6.7-23.7-18.3-29.4
			c-2.2-1.1-5.6-2.5-9.3-3.3c-0.1,0-0.1,0-0.2,0c-0.7-1-1.8-1.8-3.1-2c-5-0.6-9.9-0.6-14.6,0.1c0.5-1.3,1.3-2.3,2.4-3.2
			c2.2-1.7,4.8-3.1,7.6-4.5c1.1-0.6,2.3-1.2,3.5-1.8c3.2-1.7,7.5-4.1,10-8c0.3-0.5,0.6-1.1,0.9-1.6c1.2-0.3,2.3-0.9,3.4-1.8
			c2.3-2,3.6-5.1,3.4-8.2c-0.3-3.2-2.4-5.9-5.6-7.1c-3.2-1.2-6.8-0.4-9.1,1.9c-2.6,2.6-2.9,5.2-2.8,7.1c0,0.1,0,0.1,0,0.2
			c-2.2-0.3-4.6-0.9-6.5-1.4c-0.8-0.2-1.5-0.4-2.1-0.5c-5.6-1.2-11.2-1.8-16.8-1.7c-6.3,0.1-11.4,0.7-15.9,1.8
			c-1-0.6-2.2-0.8-3.3-0.4c-0.6,0.2-14.7,4.1-22.6,15.7c-3.7,4.6-6.2,10-7.2,15.4c-5.1-0.8-16.4-0.7-27.8,11.7
			c-0.1,0.1-0.1,0.1-0.2,0.2c-0.2,0.2-1.9,2.4-3.5,6.1c-3.6,6.8-5.1,14.4-4.5,22.6c0.3,3.6,1.4,7.8,3.3,12.3
			c0.5,1.2,0.8,2.3,1.1,3.4c-1.4-0.2-2.8,0-4.2,0.6c-3.5,1.4-5.4,5-4.8,8.6c0.4,2.3,2,4.4,4.1,5.6c0.6,0.3,1.1,0.6,1.7,0.7
			C42.1,187.3,44.8,186.9,46.7,185.5z"/>
		<path class="st3" d="M46.2,185c0.6-0.5,1.2-1,1.6-1.7c1.4-0.1,2.8-0.6,4.2-1.2c2.3-1.1,4.4-2.9,5.7-4.9c3.3-5,2.4-10.3,1.8-14.5
			c-0.2-1.1-0.3-2.1-0.4-3c-0.2-2.4,0.4-5.3,1.4-6.6c0.9-1.1,2.1-1.8,5.4-1.5c1.8,0.2,4.1,1.4,6.5,3.5c0.3,0.3,0.7,0.7,1.1,1.1
			c1,1.1,2.3,2.4,4.1,3.3c0.1,0.5,0.2,1,0.4,1.4c0,0,0,0.1,0.1,0.1c-0.2,1.1-0.8,2.6-1.3,3.8l-0.2,0.4c-0.9,2.2-2.2,5.3-0.5,9
			c0.2,0.5,0.5,1,0.8,1.5c-0.4,0.3-0.7,0.6-1,0.9c-2,0.1-3.7,1.5-4,3.5c-1.6,0.8-2.9,2-3.8,3.4c-1.1,1.7-1.5,3.7-1.3,5.7
			c0,0,0,0,0,0c-1.3,0.9-2.2,2-2.9,3.4c-0.8,1.6-1.6,4.8,1.3,8.4c0,0.1,0,0.1-0.1,0.2l-0.1,0.3c-0.1,0.2-0.1,0.4-0.2,0.6
			c0,0,0,0,0,0l0,0.1c-0.1,0.4-0.2,0.7-0.2,1c-0.5,3,1,6.7,3.5,8.3c0.6,0.4,1.1,0.7,1.6,0.9c0.1,0.3,0.2,0.7,0.3,1c0,0,0,0,0,0
			c0.9,2.4,2.7,4.3,5.1,5.2c2.4,0.9,4.8,0.3,6.3-0.2c0.7,0.9,1.8,2.3,3.6,3.1c2.9,1.4,5.9,1.6,8.8,0.7c1.4-0.4,2.4-1.2,3-1.8
			c0,0,0,0,0,0c0.3-0.1,0.7,0.1,2.1,1c1.7,1.1,3.7,1.7,5.9,1.7c0.2,0,0.4,0,0.6,0c1.5-0.1,3.4-0.3,5.1-1.6c0.8-0.6,1.4-1.2,2-1.7
			c0.3-0.3,0.8-0.7,1.1-0.9c0.3,0.1,0.9,0.4,1.3,0.6c0.2,0.1,0.4,0.2,0.5,0.3c2.3,1.1,4.7,0.8,6.3,0.5c3.9-0.7,5.5-3.9,6.3-5.7
			c0.1-0.1,0.1-0.3,0.2-0.4c0.3,0,0.6,0,0.9,0c1.1,0,2.6,0.1,4.3-0.4c2.1-0.6,3.4-2,4.4-3.1c0.8-0.9,1.2-2,1.6-2.8
			c2.3-0.1,5.1-0.4,7.7-2.9c1.4-1.4,2.2-2.8,2.7-4.5c0.3-1.1,0.3-2.1,0.3-2.8c0.5-0.3,1.1-0.6,1.6-1.1c1.7-1.4,2.8-3,3.4-4.9
			c0.9-2.8-0.2-5.1-0.6-5.9c-0.1-0.2-0.1-0.3-0.2-0.4c0,0,0.1-0.1,0.1-0.1c1.8-1.8,2.8-4.2,2.6-6.5c-0.1-1.5-0.7-2.9-1.6-4.1
			c0.1-0.3,0.2-0.5,0.2-0.8c0.1-0.4,0.1-0.8,0.1-1.2c0,0,0,0,0-0.1c0-0.1,0-0.2,0-0.3c0-0.2,0-0.5-0.1-0.7c0-0.1,0-0.2-0.1-0.3
			c-0.1-0.2-0.1-0.5-0.2-0.6c0-0.1,0-0.1-0.1-0.2c-0.2-0.5-0.4-0.8-0.7-1.2c0.2-1.5-0.1-3-0.9-4.2c-1.2-1.9-3.3-3.1-5.9-3.1
			c-0.3,0-0.5,0-0.8,0c-1.1-1.7-3.1-3.1-5.2-3.5c0.4-0.8,0.7-1.6,1.2-2.3c1.1-1.9,2.7-3.2,5.7-4.5c1.8-0.8,5.4-1.9,8.8,0.2
			c0.9,0.6,1.2,1,0.3,5.2c-0.1,0.6-0.2,1.1-0.3,1.7c-0.7,3.8-0.7,7.4,0.1,11c0.5,2.2,1.4,4,2.3,5.7l0.2,0.4c0.1,0.2,0.2,0.4,0.3,0.7
			c-1.3,1.9-1.8,4.3-1.3,6.8c0.7,3.8,3.9,6.6,8,7.1c4.2,0.5,8.1-1.8,9.8-5.5c1.8-4.1,0.3-8.9-3.7-11.2c-0.7-0.4-1.5-0.7-2.3-0.9
			c0.1-0.8,0.2-1.5,0.5-2.2c0.7-2.1,1.8-4.1,3.2-6.5c3.3-5.6,5.3-11.7,5.4-17.1c0.3-12.4-6.7-23.7-18.3-29.4
			c-2.2-1.1-5.6-2.5-9.3-3.3c-0.1,0-0.1,0-0.2,0c-0.7-1-1.8-1.8-3.1-2c-5-0.6-9.9-0.6-14.6,0.1c0.5-1.3,1.3-2.3,2.4-3.2
			c2.2-1.7,4.8-3.1,7.6-4.5c1.1-0.6,2.3-1.2,3.5-1.8c3.2-1.7,7.5-4.1,10-8c0.3-0.5,0.6-1.1,0.9-1.6c1.2-0.3,2.3-0.9,3.4-1.8
			c2.3-2,3.6-5.1,3.4-8.2c-0.3-3.2-2.4-5.9-5.6-7.1c-3.2-1.2-6.8-0.4-9.1,1.9c-2.6,2.6-2.9,5.2-2.8,7.1c0,0.1,0,0.1,0,0.2
			c-2.2-0.3-4.6-0.9-6.5-1.4c-0.8-0.2-1.5-0.4-2.1-0.5c-5.6-1.2-11.2-1.8-16.7-1.7c-6.3,0.1-11.4,0.7-15.9,1.8
			c-1-0.6-2.2-0.8-3.3-0.4c-0.6,0.2-14.7,4.1-22.6,15.7c-3.7,4.6-6.2,10-7.2,15.4c-5.1-0.8-16.4-0.7-27.8,11.7
			c-0.1,0.1-0.1,0.1-0.2,0.2c-0.2,0.2-1.9,2.4-3.5,6.1c-3.6,6.8-5.1,14.4-4.5,22.6c0.3,3.6,1.4,7.8,3.3,12.3
			c0.5,1.2,0.8,2.3,1.1,3.4c-1.4-0.2-2.8,0-4.2,0.6c-3.5,1.4-5.4,5-4.8,8.6c0.4,2.3,2,4.4,4.1,5.6c0.6,0.3,1.1,0.6,1.7,0.7
			C41.7,186.8,44.3,186.4,46.2,185z"/>
		<path class="st4" d="M45.8,184.6c0.6-0.5,1.2-1,1.6-1.7c1.4-0.1,2.8-0.6,4.2-1.2c2.3-1.1,4.4-2.9,5.7-4.9c3.3-5,2.4-10.3,1.8-14.5
			c-0.2-1.1-0.3-2.1-0.4-3c-0.2-2.4,0.4-5.3,1.4-6.6c0.9-1.1,2.1-1.8,5.4-1.5c1.8,0.2,4.1,1.4,6.5,3.5c0.3,0.3,0.7,0.7,1.1,1.1
			c1,1.1,2.3,2.4,4.1,3.3c0.1,0.5,0.2,1,0.4,1.4c0,0,0,0.1,0.1,0.1c-0.2,1.1-0.8,2.6-1.3,3.8l-0.2,0.4c-0.9,2.2-2.2,5.3-0.5,9
			c0.2,0.5,0.5,1,0.8,1.5c-0.4,0.3-0.7,0.6-1,0.9c-2,0.1-3.7,1.5-4,3.5c-1.6,0.8-2.9,2-3.8,3.4c-1.1,1.7-1.5,3.7-1.3,5.7
			c0,0,0,0,0,0c-1.3,0.9-2.2,2-2.9,3.4c-0.8,1.6-1.6,4.8,1.3,8.4c0,0.1,0,0.1-0.1,0.2l-0.1,0.3c-0.1,0.2-0.1,0.4-0.2,0.6
			c0,0,0,0,0,0l0,0.1c-0.1,0.4-0.2,0.7-0.2,1c-0.5,3,1,6.7,3.5,8.3c0.6,0.4,1.1,0.7,1.6,0.9c0.1,0.3,0.2,0.7,0.3,1c0,0,0,0,0,0
			c0.9,2.4,2.7,4.3,5.1,5.2c2.4,0.9,4.8,0.3,6.3-0.2c0.7,0.9,1.8,2.3,3.6,3.1c2.9,1.4,5.9,1.6,8.8,0.7c1.4-0.4,2.4-1.2,3-1.8
			c0,0,0,0,0,0c0.3-0.1,0.7,0.1,2.1,1c1.7,1.1,3.7,1.7,5.9,1.7c0.2,0,0.4,0,0.6,0c1.5-0.1,3.4-0.3,5.1-1.6c0.8-0.6,1.4-1.2,2-1.7
			c0.3-0.3,0.8-0.7,1.1-0.9c0.3,0.1,0.9,0.4,1.3,0.6c0.2,0.1,0.4,0.2,0.5,0.3c2.3,1.1,4.7,0.8,6.3,0.5c3.9-0.7,5.5-3.9,6.3-5.7
			c0.1-0.1,0.1-0.3,0.2-0.4c0.3,0,0.6,0,0.9,0c1.1,0,2.6,0.1,4.3-0.4c2.1-0.6,3.4-2,4.4-3.1c0.8-0.9,1.2-2,1.6-2.8
			c2.3-0.1,5.1-0.4,7.7-2.9c1.4-1.4,2.2-2.8,2.7-4.5c0.3-1.1,0.3-2.1,0.3-2.8c0.5-0.3,1.1-0.6,1.6-1.1c1.7-1.4,2.8-3,3.4-4.9
			c0.9-2.8-0.2-5.1-0.6-5.9c-0.1-0.2-0.1-0.3-0.2-0.4c0,0,0.1-0.1,0.1-0.1c1.8-1.8,2.8-4.2,2.6-6.5c-0.1-1.5-0.7-2.9-1.6-4.1
			c0.1-0.3,0.2-0.5,0.2-0.8c0.1-0.4,0.1-0.8,0.1-1.2c0,0,0,0,0-0.1c0-0.1,0-0.2,0-0.3c0-0.2,0-0.5-0.1-0.7c0-0.1,0-0.2-0.1-0.3
			c-0.1-0.2-0.1-0.5-0.2-0.6c0-0.1,0-0.1-0.1-0.2c-0.2-0.5-0.4-0.8-0.7-1.2c0.2-1.5-0.1-3-0.9-4.2c-1.2-1.9-3.3-3.1-5.9-3.1
			c-0.3,0-0.5,0-0.8,0c-1.1-1.7-3.1-3.1-5.2-3.5c0.4-0.8,0.7-1.6,1.2-2.3c1.1-1.9,2.7-3.2,5.7-4.5c1.8-0.8,5.4-1.9,8.8,0.2
			c0.9,0.6,1.2,1,0.3,5.2c-0.1,0.6-0.2,1.1-0.3,1.7c-0.7,3.8-0.7,7.4,0.1,11c0.5,2.2,1.4,4,2.3,5.7l0.2,0.4c0.1,0.2,0.2,0.4,0.3,0.7
			c-1.3,1.9-1.8,4.3-1.3,6.8c0.7,3.8,3.9,6.6,8,7.1c4.2,0.5,8.1-1.8,9.8-5.5c1.8-4.1,0.3-8.9-3.7-11.2c-0.7-0.4-1.5-0.7-2.3-0.9
			c0.1-0.8,0.2-1.5,0.5-2.2c0.7-2.1,1.8-4.1,3.2-6.5c3.3-5.6,5.3-11.7,5.4-17.1c0.3-12.4-6.7-23.7-18.3-29.4
			c-2.2-1.1-5.6-2.5-9.3-3.3c-0.1,0-0.1,0-0.2,0c-0.7-1-1.8-1.8-3.1-2c-5-0.6-9.9-0.6-14.6,0.1c0.5-1.3,1.3-2.3,2.4-3.2
			c2.2-1.7,4.8-3.1,7.6-4.5c1.1-0.6,2.3-1.2,3.5-1.8c3.2-1.7,7.5-4.1,10-8c0.3-0.5,0.6-1.1,0.9-1.6c1.2-0.3,2.3-0.9,3.4-1.8
			c2.3-2,3.6-5.1,3.4-8.2c-0.3-3.2-2.4-5.9-5.6-7.1c-3.2-1.2-6.8-0.4-9.1,1.9c-2.6,2.6-2.9,5.2-2.8,7.1c0,0.1,0,0.1,0,0.2
			c-2.2-0.3-4.6-0.9-6.5-1.4c-0.8-0.2-1.5-0.4-2.1-0.5c-5.6-1.2-11.2-1.8-16.7-1.7c-6.3,0.1-11.4,0.7-15.9,1.8
			c-1-0.6-2.2-0.8-3.3-0.4c-0.6,0.2-14.7,4.1-22.6,15.7c-3.7,4.6-6.2,10-7.2,15.4c-5.1-0.8-16.4-0.7-27.8,11.7
			c-0.1,0.1-0.1,0.1-0.2,0.2c-0.2,0.2-1.9,2.4-3.5,6.1c-3.6,6.8-5.1,14.4-4.5,22.6c0.3,3.6,1.4,7.8,3.3,12.3
			c0.5,1.2,0.8,2.3,1.1,3.4c-1.4-0.2-2.8,0-4.2,0.6c-3.5,1.4-5.4,5-4.8,8.6c0.4,2.3,2,4.4,4.1,5.6c0.6,0.3,1.1,0.6,1.7,0.7
			C41.2,186.4,43.9,186,45.8,184.6z"/>
		<path class="st5" d="M45.3,184.1c0.6-0.5,1.2-1,1.6-1.7c1.4-0.1,2.8-0.6,4.2-1.2c2.3-1.1,4.4-2.9,5.7-4.9c3.3-5,2.4-10.3,1.8-14.5
			c-0.2-1.1-0.3-2.1-0.4-3c-0.2-2.4,0.4-5.3,1.4-6.6c0.9-1.1,2.1-1.8,5.4-1.5c1.8,0.2,4.1,1.4,6.5,3.5c0.3,0.3,0.7,0.7,1.1,1.1
			c1,1.1,2.3,2.4,4.1,3.3c0.1,0.5,0.2,1,0.4,1.4c0,0,0,0.1,0.1,0.1c-0.2,1.1-0.8,2.6-1.3,3.8l-0.2,0.4c-0.9,2.2-2.2,5.3-0.5,9
			c0.2,0.5,0.5,1,0.8,1.5c-0.4,0.3-0.7,0.6-1,0.9c-2,0.1-3.7,1.5-4,3.5c-1.6,0.8-2.9,2-3.8,3.4c-1.1,1.7-1.5,3.7-1.3,5.7
			c0,0,0,0,0,0c-1.3,0.9-2.2,2-2.9,3.4c-0.8,1.6-1.6,4.8,1.3,8.4c0,0.1,0,0.1-0.1,0.2l-0.1,0.3c-0.1,0.2-0.1,0.4-0.2,0.6
			c0,0,0,0,0,0.1l0,0.1c-0.1,0.4-0.2,0.7-0.2,1c-0.5,3,1,6.7,3.5,8.3c0.6,0.4,1.1,0.7,1.6,0.9c0.1,0.3,0.2,0.7,0.3,1c0,0,0,0,0,0
			c0.9,2.4,2.7,4.3,5.1,5.2c2.4,0.9,4.8,0.3,6.3-0.2c0.7,0.9,1.8,2.3,3.6,3.1c2.9,1.4,5.9,1.6,8.8,0.7c1.4-0.4,2.4-1.2,3-1.8
			c0,0,0,0,0,0c0.3-0.1,0.7,0.1,2.1,1c1.7,1.1,3.7,1.7,5.9,1.7c0.2,0,0.4,0,0.6,0c1.5-0.1,3.4-0.3,5.1-1.6c0.8-0.6,1.4-1.2,2-1.7
			c0.3-0.3,0.8-0.7,1.1-0.9c0.3,0.1,0.9,0.4,1.3,0.6c0.2,0.1,0.4,0.2,0.5,0.3c2.3,1.1,4.7,0.8,6.3,0.5c3.9-0.7,5.5-3.9,6.3-5.7
			c0.1-0.1,0.1-0.3,0.2-0.4c0.3,0,0.6,0,0.9,0c1.1,0,2.6,0.1,4.3-0.4c2.1-0.6,3.4-2,4.4-3.1c0.8-0.9,1.2-2,1.6-2.8
			c2.3-0.1,5.1-0.4,7.7-2.9c1.4-1.4,2.2-2.8,2.7-4.5c0.3-1.1,0.3-2.1,0.3-2.8c0.5-0.3,1.1-0.6,1.6-1.1c1.7-1.4,2.8-3,3.4-4.9
			c0.9-2.8-0.2-5.1-0.6-5.9c-0.1-0.2-0.1-0.3-0.2-0.4c0,0,0.1-0.1,0.1-0.1c1.8-1.8,2.8-4.2,2.6-6.5c-0.1-1.5-0.7-2.9-1.6-4.1
			c0.1-0.3,0.2-0.5,0.2-0.8c0.1-0.4,0.1-0.8,0.1-1.2c0,0,0,0,0-0.1c0-0.1,0-0.2,0-0.3c0-0.2,0-0.5-0.1-0.7c0-0.1,0-0.2-0.1-0.3
			c-0.1-0.2-0.1-0.5-0.2-0.6c0-0.1,0-0.1-0.1-0.2c-0.2-0.5-0.4-0.8-0.7-1.2c0.2-1.5-0.1-3-0.9-4.2c-1.2-1.9-3.3-3.1-5.9-3.1
			c-0.3,0-0.5,0-0.8,0c-1.1-1.7-3.1-3.1-5.2-3.5c0.4-0.8,0.7-1.6,1.2-2.3c1.1-1.9,2.7-3.2,5.7-4.5c1.8-0.8,5.4-1.9,8.8,0.2
			c0.9,0.6,1.2,1,0.3,5.2c-0.1,0.6-0.2,1.1-0.3,1.7c-0.7,3.8-0.7,7.4,0.1,11c0.5,2.2,1.4,4,2.3,5.7l0.2,0.4c0.1,0.2,0.2,0.4,0.3,0.7
			c-1.3,1.9-1.8,4.3-1.3,6.8c0.7,3.8,3.9,6.6,8,7.1c4.2,0.5,8.1-1.8,9.8-5.5c1.8-4.1,0.3-8.9-3.7-11.2c-0.7-0.4-1.5-0.7-2.3-0.9
			c0.1-0.8,0.2-1.5,0.5-2.2c0.7-2.1,1.8-4.1,3.2-6.5c3.3-5.6,5.3-11.7,5.4-17.1c0.3-12.4-6.7-23.7-18.3-29.4
			c-2.2-1.1-5.6-2.5-9.3-3.3c-0.1,0-0.1,0-0.2,0c-0.7-1-1.8-1.8-3.1-2c-5-0.6-9.9-0.6-14.6,0.1c0.5-1.3,1.3-2.3,2.4-3.2
			c2.2-1.7,4.8-3.1,7.6-4.5c1.1-0.6,2.3-1.2,3.5-1.8c3.2-1.7,7.5-4.1,10-8c0.3-0.5,0.6-1.1,0.9-1.6c1.2-0.3,2.3-0.9,3.4-1.8
			c2.3-2,3.6-5.1,3.4-8.2c-0.3-3.2-2.4-5.9-5.6-7.1c-3.2-1.2-6.8-0.4-9.1,1.9c-2.6,2.6-2.9,5.2-2.8,7.1c0,0.1,0,0.1,0,0.2
			c-2.2-0.3-4.6-0.9-6.5-1.4c-0.8-0.2-1.5-0.4-2.1-0.5c-5.6-1.2-11.2-1.8-16.7-1.7c-6.3,0.1-11.4,0.7-15.9,1.8
			c-1-0.6-2.2-0.8-3.3-0.4c-0.6,0.2-14.7,4.1-22.6,15.7c-3.7,4.6-6.2,10-7.2,15.4c-5.1-0.8-16.4-0.7-27.8,11.7
			c-0.1,0.1-0.1,0.1-0.2,0.2c-0.2,0.2-1.9,2.4-3.5,6.1c-3.6,6.8-5.1,14.4-4.5,22.6c0.3,3.6,1.4,7.8,3.3,12.3
			c0.5,1.2,0.8,2.3,1.1,3.4c-1.4-0.2-2.8,0-4.2,0.6c-3.5,1.4-5.4,5-4.8,8.6c0.4,2.3,2,4.4,4.1,5.6c0.6,0.3,1.1,0.6,1.7,0.7
			C40.8,185.9,43.4,185.5,45.3,184.1z"/>
		<path class="st6" d="M44.9,183.7c0.6-0.5,1.2-1,1.6-1.7c1.4-0.1,2.8-0.6,4.2-1.2c2.3-1.1,4.4-2.9,5.7-4.9c3.3-5,2.4-10.3,1.8-14.5
			c-0.2-1.1-0.3-2.1-0.4-3c-0.2-2.4,0.3-5.3,1.4-6.6c0.9-1.1,2.1-1.8,5.4-1.5c1.8,0.2,4.1,1.4,6.5,3.5c0.3,0.3,0.7,0.7,1.1,1.1
			c1,1.1,2.3,2.4,4.1,3.3c0.1,0.5,0.2,1,0.4,1.4c0,0,0,0.1,0.1,0.1c-0.2,1.1-0.8,2.6-1.3,3.8l-0.2,0.4c-0.9,2.2-2.2,5.3-0.5,9
			c0.2,0.5,0.5,1,0.8,1.5c-0.4,0.3-0.7,0.6-1,0.9c-2,0.1-3.7,1.5-4,3.5c-1.6,0.8-2.9,2-3.8,3.4c-1.1,1.7-1.5,3.7-1.3,5.7
			c0,0,0,0,0,0c-1.3,0.9-2.2,2-2.9,3.4c-0.8,1.6-1.6,4.8,1.3,8.4c0,0.1,0,0.1-0.1,0.2l-0.1,0.3c-0.1,0.2-0.1,0.4-0.2,0.6
			c0,0,0,0,0,0.1l0,0.1c-0.1,0.4-0.2,0.7-0.2,1c-0.5,3,1,6.7,3.5,8.3c0.6,0.4,1.1,0.7,1.6,0.9c0.1,0.3,0.2,0.7,0.3,1c0,0,0,0,0,0
			c0.9,2.4,2.7,4.3,5.1,5.2c2.4,0.9,4.8,0.3,6.3-0.2c0.7,0.9,1.8,2.3,3.6,3.1c2.9,1.4,5.9,1.6,8.8,0.7c1.4-0.4,2.4-1.2,3-1.8
			c0,0,0,0,0,0c0.3-0.1,0.7,0.1,2.1,1c1.7,1.1,3.7,1.7,5.9,1.7c0.2,0,0.4,0,0.6,0c1.5-0.1,3.4-0.3,5.1-1.6c0.8-0.6,1.4-1.2,2-1.7
			c0.3-0.3,0.8-0.7,1.1-0.9c0.3,0.1,0.9,0.4,1.3,0.6c0.2,0.1,0.4,0.2,0.5,0.3c2.3,1.1,4.7,0.8,6.3,0.5c3.9-0.7,5.5-3.9,6.3-5.7
			c0.1-0.1,0.1-0.3,0.2-0.4c0.3,0,0.6,0,0.9,0c1.1,0,2.6,0.1,4.3-0.4c2.1-0.6,3.4-2,4.4-3.1c0.8-0.9,1.2-2,1.6-2.8
			c2.3-0.1,5.1-0.4,7.7-2.9c1.4-1.4,2.2-2.8,2.7-4.5c0.3-1.1,0.3-2.1,0.3-2.8c0.5-0.3,1.1-0.6,1.6-1.1c1.7-1.4,2.8-3,3.4-4.9
			c0.9-2.8-0.2-5.1-0.6-5.9c-0.1-0.2-0.1-0.3-0.2-0.4c0,0,0.1-0.1,0.1-0.1c1.8-1.8,2.8-4.2,2.6-6.5c-0.1-1.5-0.7-2.9-1.6-4.1
			c0.1-0.3,0.2-0.5,0.2-0.8c0.1-0.4,0.1-0.8,0.1-1.2c0,0,0,0,0-0.1c0-0.1,0-0.2,0-0.3c0-0.2,0-0.4-0.1-0.7c0-0.1,0-0.2-0.1-0.3
			c-0.1-0.2-0.1-0.5-0.2-0.6c0-0.1,0-0.1-0.1-0.2c-0.2-0.5-0.4-0.8-0.7-1.2c0.2-1.5-0.1-3-0.9-4.2c-1.2-1.9-3.3-3.1-5.9-3.1
			c-0.3,0-0.5,0-0.8,0c-1.1-1.7-3.1-3.1-5.2-3.5c0.4-0.8,0.7-1.6,1.2-2.3c1.1-1.9,2.7-3.2,5.7-4.5c1.8-0.8,5.4-1.9,8.8,0.2
			c0.9,0.6,1.2,1,0.3,5.2c-0.1,0.6-0.2,1.1-0.3,1.7c-0.7,3.8-0.7,7.4,0.1,11c0.5,2.2,1.4,4,2.3,5.7l0.2,0.4c0.1,0.2,0.2,0.4,0.3,0.7
			c-1.3,1.9-1.8,4.3-1.3,6.8c0.7,3.8,3.9,6.6,8,7.1c4.2,0.5,8.1-1.8,9.8-5.5c1.8-4.1,0.3-8.9-3.7-11.2c-0.7-0.4-1.5-0.7-2.3-0.9
			c0.1-0.8,0.2-1.5,0.5-2.2c0.7-2.1,1.8-4.1,3.2-6.5c3.3-5.6,5.3-11.7,5.4-17.1c0.3-12.4-6.7-23.7-18.3-29.4
			c-2.2-1.1-5.6-2.5-9.3-3.3c-0.1,0-0.1,0-0.2,0c-0.7-1-1.8-1.8-3.1-2c-5-0.6-9.9-0.6-14.6,0.1c0.5-1.3,1.3-2.3,2.4-3.2
			c2.2-1.7,4.8-3.1,7.6-4.5c1.1-0.6,2.3-1.2,3.5-1.8c3.2-1.7,7.5-4.1,10-8c0.3-0.5,0.6-1.1,0.9-1.6c1.2-0.3,2.3-0.9,3.4-1.8
			c2.3-2,3.6-5.1,3.4-8.2c-0.3-3.2-2.4-5.9-5.6-7.1c-3.2-1.2-6.8-0.4-9.1,1.9c-2.6,2.6-2.9,5.2-2.8,7.1c0,0.1,0,0.1,0,0.2
			c-2.2-0.3-4.6-0.9-6.5-1.4c-0.8-0.2-1.5-0.4-2.1-0.5c-5.6-1.2-11.2-1.8-16.7-1.7c-6.3,0.1-11.4,0.7-15.9,1.8
			c-1-0.6-2.2-0.8-3.3-0.4C101.8,82,87.7,86,79.8,97.6c-3.7,4.6-6.2,10-7.2,15.4c-5.1-0.8-16.4-0.7-27.8,11.7
			c-0.1,0.1-0.1,0.1-0.2,0.2c-0.2,0.2-1.9,2.4-3.5,6.1c-3.6,6.8-5.1,14.4-4.5,22.6c0.3,3.6,1.4,7.8,3.3,12.3
			c0.5,1.2,0.8,2.3,1.1,3.4c-1.4-0.2-2.8,0-4.2,0.6c-3.5,1.4-5.4,5-4.8,8.6c0.4,2.3,2,4.4,4.1,5.6c0.6,0.3,1.1,0.6,1.7,0.7
			C40.3,185.5,43,185.1,44.9,183.7z"/>
		<path class="st7" d="M44.4,183.2c0.6-0.5,1.2-1,1.6-1.7c1.4-0.1,2.8-0.6,4.2-1.2c2.3-1.1,4.4-2.9,5.7-4.9c3.3-5,2.4-10.3,1.8-14.5
			c-0.2-1.1-0.3-2.1-0.4-3c-0.2-2.4,0.4-5.3,1.4-6.6c0.9-1.1,2.1-1.8,5.4-1.5c1.8,0.2,4.1,1.4,6.5,3.5c0.3,0.3,0.7,0.7,1.1,1.1
			c1,1.1,2.3,2.4,4.1,3.3c0.1,0.5,0.2,1,0.4,1.4c0,0,0,0.1,0.1,0.1c-0.2,1.1-0.8,2.6-1.3,3.8l-0.2,0.5c-0.9,2.2-2.2,5.3-0.5,9
			c0.2,0.5,0.5,1,0.8,1.5c-0.4,0.3-0.7,0.6-1,0.9c-2,0.1-3.7,1.5-4,3.5c-1.6,0.8-2.9,2-3.8,3.4c-1.1,1.7-1.5,3.7-1.3,5.7
			c0,0,0,0,0,0c-1.3,0.9-2.2,2-2.9,3.4c-0.8,1.6-1.6,4.8,1.3,8.4c0,0.1,0,0.1-0.1,0.2l-0.1,0.3c-0.1,0.2-0.1,0.4-0.2,0.6
			c0,0,0,0,0,0l0,0.1c-0.1,0.4-0.2,0.7-0.2,1c-0.5,3,1,6.7,3.5,8.3c0.6,0.4,1.1,0.7,1.6,0.9c0.1,0.3,0.2,0.7,0.3,1c0,0,0,0,0,0
			c0.9,2.4,2.7,4.3,5.1,5.2c2.4,0.9,4.8,0.3,6.3-0.2c0.7,0.9,1.8,2.3,3.6,3.1c2.9,1.4,5.9,1.6,8.8,0.7c1.4-0.4,2.4-1.2,3-1.8
			c0,0,0,0,0,0c0.3-0.1,0.7,0.1,2.1,1c1.7,1.1,3.7,1.7,5.9,1.7c0.2,0,0.4,0,0.6,0c1.5-0.1,3.4-0.3,5.1-1.6c0.8-0.6,1.4-1.2,2-1.7
			c0.3-0.3,0.8-0.7,1.1-0.9c0.3,0.1,0.9,0.4,1.3,0.6c0.2,0.1,0.4,0.2,0.5,0.3c2.3,1.1,4.7,0.8,6.3,0.5c3.9-0.7,5.5-3.9,6.3-5.7
			c0.1-0.1,0.1-0.3,0.2-0.4c0.3,0,0.6,0,0.9,0c1.1,0,2.6,0.1,4.3-0.4c2.1-0.6,3.4-2,4.4-3.1c0.8-0.9,1.2-2,1.6-2.8
			c2.3-0.1,5.1-0.4,7.7-2.9c1.4-1.4,2.2-2.8,2.7-4.5c0.3-1.1,0.3-2.1,0.3-2.8c0.5-0.3,1.1-0.6,1.6-1.1c1.7-1.4,2.8-3,3.4-4.9
			c0.9-2.8-0.2-5.1-0.6-5.9c-0.1-0.2-0.1-0.3-0.2-0.4c0,0,0.1-0.1,0.1-0.1c1.8-1.8,2.8-4.2,2.6-6.5c-0.1-1.5-0.7-2.9-1.6-4.1
			c0.1-0.3,0.2-0.5,0.2-0.8c0.1-0.4,0.1-0.8,0.1-1.2c0,0,0,0,0-0.1c0-0.1,0-0.2,0-0.3c0-0.2,0-0.5-0.1-0.7c0-0.1,0-0.2-0.1-0.3
			c-0.1-0.2-0.1-0.5-0.2-0.6c0-0.1,0-0.1-0.1-0.2c-0.2-0.5-0.4-0.8-0.7-1.2c0.2-1.5-0.1-3-0.9-4.2c-1.2-1.9-3.3-3.1-5.9-3.1
			c-0.3,0-0.5,0-0.8,0c-1.1-1.7-3.1-3.1-5.2-3.5c0.4-0.8,0.7-1.6,1.2-2.3c1.1-1.9,2.7-3.2,5.7-4.5c1.8-0.8,5.4-1.9,8.8,0.2
			c0.9,0.6,1.2,1,0.3,5.2c-0.1,0.6-0.2,1.1-0.3,1.7c-0.7,3.8-0.7,7.4,0.1,11c0.5,2.2,1.4,4,2.3,5.7l0.2,0.4c0.1,0.2,0.2,0.4,0.3,0.7
			c-1.3,1.9-1.8,4.3-1.3,6.8c0.7,3.8,3.9,6.6,8,7.1c4.2,0.5,8.1-1.8,9.8-5.5c1.8-4.1,0.3-8.9-3.7-11.2c-0.7-0.4-1.5-0.7-2.3-0.9
			c0.1-0.8,0.2-1.5,0.5-2.2c0.7-2.1,1.8-4.1,3.2-6.5c3.3-5.6,5.3-11.7,5.4-17.1c0.3-12.4-6.7-23.7-18.3-29.4
			c-2.2-1.1-5.6-2.5-9.3-3.3c-0.1,0-0.1,0-0.2,0c-0.7-1-1.8-1.8-3.1-2c-5-0.6-9.9-0.6-14.6,0.1c0.5-1.3,1.3-2.3,2.4-3.2
			c2.2-1.7,4.8-3.1,7.6-4.5c1.1-0.6,2.3-1.2,3.5-1.8c3.2-1.7,7.5-4.1,10-8c0.3-0.5,0.6-1.1,0.9-1.6c1.2-0.3,2.3-0.9,3.4-1.8
			c2.3-2,3.6-5.1,3.4-8.2c-0.3-3.2-2.4-5.9-5.6-7.1c-3.2-1.2-6.8-0.4-9.1,1.9c-2.6,2.6-2.9,5.2-2.8,7.1c0,0.1,0,0.1,0,0.2
			c-2.2-0.3-4.6-0.9-6.5-1.4c-0.8-0.2-1.5-0.4-2.1-0.5c-5.6-1.2-11.2-1.8-16.8-1.7c-6.3,0.1-11.4,0.7-15.9,1.8
			c-1-0.6-2.2-0.8-3.3-0.4c-0.6,0.2-14.7,4.1-22.6,15.7c-3.7,4.6-6.2,10-7.2,15.4c-5.1-0.8-16.4-0.7-27.8,11.7
			c-0.1,0.1-0.1,0.1-0.2,0.2c-0.2,0.2-1.9,2.4-3.5,6.1c-3.6,6.8-5.1,14.4-4.5,22.6c0.3,3.6,1.4,7.8,3.3,12.3
			c0.5,1.2,0.8,2.3,1.1,3.4c-1.4-0.2-2.8,0-4.2,0.6c-3.5,1.4-5.4,5-4.8,8.6c0.4,2.3,2,4.4,4.1,5.6c0.6,0.3,1.1,0.6,1.7,0.7
			C39.9,185,42.5,184.6,44.4,183.2z"/>
		<path class="st8" d="M44,182.8c0.6-0.5,1.2-1,1.6-1.7c1.4-0.1,2.8-0.6,4.2-1.2c2.3-1.1,4.4-2.9,5.7-4.9c3.3-5,2.4-10.3,1.8-14.5
			c-0.2-1.1-0.3-2.1-0.4-3c-0.2-2.4,0.4-5.3,1.4-6.6c0.9-1.1,2.1-1.8,5.4-1.5c1.8,0.2,4.1,1.4,6.5,3.5c0.3,0.3,0.7,0.7,1.1,1.1
			c1,1.1,2.3,2.4,4.1,3.3c0.1,0.5,0.2,1,0.4,1.4c0,0,0,0.1,0.1,0.1c-0.2,1.1-0.8,2.6-1.3,3.8l-0.2,0.5c-0.9,2.2-2.2,5.3-0.5,9
			c0.2,0.5,0.5,1,0.8,1.5c-0.4,0.3-0.7,0.6-1,0.9c-2,0.1-3.7,1.5-4,3.5c-1.6,0.8-2.9,2-3.8,3.4c-1.1,1.7-1.5,3.7-1.3,5.7
			c0,0,0,0,0,0c-1.3,0.9-2.2,2-2.9,3.4c-0.8,1.6-1.6,4.8,1.3,8.4c0,0.1,0,0.1-0.1,0.2l-0.1,0.3c-0.1,0.2-0.1,0.4-0.2,0.6
			c0,0,0,0,0,0l0,0.1c-0.1,0.4-0.2,0.7-0.2,1c-0.5,3,1,6.7,3.5,8.3c0.6,0.4,1.1,0.7,1.6,0.9c0.1,0.3,0.2,0.7,0.3,1c0,0,0,0,0,0
			c0.9,2.4,2.7,4.3,5.1,5.2c2.4,0.9,4.8,0.3,6.3-0.2c0.7,0.9,1.8,2.3,3.6,3.1c2.9,1.4,5.9,1.6,8.8,0.7c1.4-0.4,2.4-1.2,3-1.8
			c0,0,0,0,0,0c0.3-0.1,0.7,0.1,2.1,1c1.7,1.1,3.7,1.7,5.9,1.7c0.2,0,0.4,0,0.6,0c1.5-0.1,3.4-0.3,5.1-1.6c0.8-0.6,1.4-1.2,2-1.7
			c0.3-0.3,0.8-0.7,1.1-0.9c0.3,0.1,0.9,0.4,1.3,0.6c0.2,0.1,0.4,0.2,0.5,0.3c2.3,1.1,4.7,0.8,6.3,0.5c3.9-0.7,5.5-3.9,6.3-5.7
			c0.1-0.1,0.1-0.3,0.2-0.4c0.3,0,0.6,0,0.9,0c1.1,0,2.6,0.1,4.3-0.4c2.1-0.6,3.4-2,4.4-3.1c0.8-0.9,1.2-2,1.6-2.8
			c2.3-0.1,5.1-0.4,7.7-2.9c1.4-1.4,2.2-2.8,2.7-4.5c0.3-1.1,0.3-2.1,0.3-2.8c0.5-0.3,1.1-0.6,1.6-1.1c1.7-1.4,2.8-3,3.4-4.9
			c0.9-2.8-0.2-5.1-0.6-5.9c-0.1-0.2-0.1-0.3-0.2-0.4c0,0,0.1-0.1,0.1-0.1c1.8-1.8,2.8-4.2,2.6-6.5c-0.1-1.5-0.7-2.9-1.6-4.1
			c0.1-0.3,0.2-0.5,0.2-0.8c0.1-0.4,0.1-0.8,0.1-1.2c0,0,0,0,0-0.1c0-0.1,0-0.2,0-0.3c0-0.2,0-0.4-0.1-0.7c0-0.1,0-0.2-0.1-0.3
			c-0.1-0.2-0.1-0.5-0.2-0.6c0-0.1,0-0.1-0.1-0.2c-0.2-0.5-0.4-0.8-0.7-1.2c0.2-1.5-0.1-3-0.9-4.2c-1.2-1.9-3.3-3.1-5.9-3.1
			c-0.3,0-0.5,0-0.8,0c-1.1-1.7-3.1-3.1-5.2-3.5c0.4-0.8,0.7-1.6,1.2-2.3c1.1-1.9,2.7-3.2,5.7-4.5c1.8-0.8,5.4-1.9,8.8,0.2
			c0.9,0.6,1.2,1,0.3,5.2c-0.1,0.6-0.2,1.1-0.3,1.7c-0.7,3.8-0.7,7.4,0.1,11c0.5,2.2,1.4,4,2.3,5.7l0.2,0.4c0.1,0.2,0.2,0.4,0.3,0.7
			c-1.3,1.9-1.8,4.3-1.3,6.8c0.7,3.8,3.9,6.6,8,7.1c4.2,0.5,8.1-1.8,9.8-5.5c1.8-4.1,0.3-8.9-3.7-11.2c-0.7-0.4-1.5-0.7-2.3-0.9
			c0.1-0.8,0.2-1.5,0.5-2.2c0.7-2.1,1.8-4.1,3.2-6.5c3.3-5.6,5.3-11.7,5.4-17.1c0.3-12.4-6.7-23.7-18.3-29.4
			c-2.2-1.1-5.6-2.5-9.3-3.3c-0.1,0-0.1,0-0.2,0c-0.7-1-1.8-1.8-3.1-2c-5-0.6-9.9-0.6-14.6,0.1c0.5-1.3,1.3-2.3,2.4-3.2
			c2.2-1.7,4.8-3.1,7.6-4.5c1.1-0.6,2.3-1.2,3.5-1.8c3.2-1.7,7.5-4.1,10-8c0.3-0.5,0.6-1.1,0.9-1.6c1.2-0.3,2.4-0.9,3.4-1.8
			c2.3-2,3.6-5.1,3.4-8.2c-0.3-3.2-2.4-5.9-5.6-7.1c-3.2-1.2-6.8-0.4-9.1,1.9c-2.6,2.6-2.9,5.2-2.8,7.1c0,0.1,0,0.1,0,0.2
			c-2.2-0.3-4.6-0.9-6.5-1.4c-0.8-0.2-1.5-0.4-2.1-0.5c-5.6-1.2-11.2-1.8-16.7-1.7c-6.3,0.1-11.4,0.7-15.9,1.8
			c-1-0.6-2.2-0.8-3.3-0.4c-0.6,0.2-14.7,4.1-22.6,15.7c-3.7,4.6-6.2,10-7.2,15.4c-5.1-0.8-16.4-0.7-27.8,11.7
			c-0.1,0.1-0.1,0.1-0.2,0.2c-0.2,0.2-1.9,2.4-3.5,6.1c-3.6,6.8-5.1,14.4-4.5,22.6c0.3,3.6,1.4,7.8,3.3,12.3
			c0.5,1.2,0.8,2.3,1.1,3.4c-1.4-0.2-2.8,0-4.2,0.6c-3.5,1.4-5.4,5-4.8,8.6c0.4,2.3,2,4.4,4.1,5.6c0.6,0.3,1.1,0.6,1.7,0.7
			C39.4,184.6,42.1,184.2,44,182.8z"/>
		<path class="st9" d="M43.5,182.3c0.6-0.5,1.2-1,1.6-1.7c1.4-0.1,2.8-0.6,4.2-1.2c2.3-1.1,4.4-2.9,5.7-4.9c3.3-5,2.4-10.3,1.8-14.5
			c-0.2-1.1-0.3-2.1-0.4-3c-0.2-2.4,0.4-5.3,1.4-6.6c0.9-1.1,2.1-1.8,5.4-1.5c1.8,0.2,4.1,1.4,6.5,3.5c0.3,0.3,0.7,0.7,1.1,1.1
			c1,1.1,2.3,2.4,4.1,3.3c0.1,0.5,0.2,1,0.4,1.4c0,0,0,0.1,0.1,0.1c-0.2,1.1-0.8,2.6-1.3,3.8l-0.2,0.5c-0.9,2.2-2.2,5.3-0.5,9
			c0.2,0.5,0.5,1,0.8,1.5c-0.4,0.3-0.7,0.6-1,0.9c-2,0.1-3.7,1.5-4,3.5c-1.6,0.8-2.9,2-3.8,3.4c-1.1,1.7-1.5,3.7-1.3,5.7
			c0,0,0,0,0,0c-1.3,0.9-2.2,2-2.9,3.4c-0.8,1.6-1.6,4.8,1.3,8.4c0,0.1,0,0.1-0.1,0.2l-0.1,0.3c-0.1,0.2-0.1,0.4-0.2,0.6
			c0,0,0,0,0,0l0,0.1c-0.1,0.4-0.2,0.7-0.2,1c-0.5,3,1,6.7,3.5,8.3c0.6,0.4,1.1,0.7,1.6,0.9c0.1,0.3,0.2,0.7,0.3,1c0,0,0,0,0,0
			c0.9,2.4,2.7,4.3,5.1,5.2c2.4,0.9,4.8,0.3,6.3-0.2c0.7,0.9,1.8,2.3,3.6,3.1c2.9,1.4,5.9,1.6,8.8,0.7c1.4-0.4,2.4-1.2,3-1.8
			c0,0,0,0,0,0c0.3-0.1,0.7,0.1,2.1,1c1.7,1.1,3.7,1.7,5.9,1.7c0.2,0,0.4,0,0.6,0c1.5-0.1,3.4-0.3,5.1-1.6c0.8-0.6,1.4-1.2,2-1.7
			c0.3-0.3,0.8-0.7,1.1-0.9c0.3,0.1,0.9,0.4,1.3,0.6c0.2,0.1,0.4,0.2,0.5,0.3c2.3,1.1,4.7,0.8,6.3,0.5c3.9-0.7,5.5-3.9,6.3-5.7
			c0.1-0.1,0.1-0.3,0.2-0.4c0.3,0,0.6,0,0.9,0c1.1,0,2.6,0.1,4.3-0.4c2.1-0.6,3.4-2,4.4-3.1c0.8-0.9,1.2-2,1.6-2.8
			c2.3-0.1,5.1-0.4,7.7-2.9c1.4-1.4,2.2-2.8,2.7-4.5c0.3-1.1,0.3-2.1,0.3-2.8c0.5-0.3,1.1-0.6,1.6-1.1c1.7-1.4,2.8-3,3.4-4.9
			c0.9-2.8-0.2-5.1-0.6-5.9c-0.1-0.2-0.1-0.3-0.2-0.4c0,0,0.1-0.1,0.1-0.1c1.8-1.8,2.8-4.2,2.6-6.5c-0.1-1.5-0.7-2.9-1.6-4.1
			c0.1-0.3,0.2-0.5,0.2-0.8c0.1-0.4,0.1-0.8,0.1-1.2c0,0,0,0,0-0.1c0-0.1,0-0.2,0-0.3c0-0.2,0-0.4-0.1-0.7c0-0.1,0-0.2-0.1-0.3
			c-0.1-0.2-0.1-0.5-0.2-0.6c0-0.1,0-0.1-0.1-0.2c-0.2-0.5-0.4-0.8-0.7-1.2c0.2-1.5-0.1-3-0.9-4.2c-1.2-1.9-3.3-3.1-5.9-3.1
			c-0.3,0-0.5,0-0.8,0c-1.1-1.7-3.1-3.1-5.2-3.5c0.4-0.8,0.7-1.6,1.2-2.3c1.1-1.9,2.7-3.2,5.7-4.5c1.8-0.8,5.4-1.9,8.8,0.2
			c0.9,0.6,1.2,1,0.3,5.2c-0.1,0.6-0.2,1.1-0.3,1.7c-0.7,3.8-0.7,7.4,0.1,11c0.5,2.2,1.4,4,2.3,5.7l0.2,0.4c0.1,0.2,0.2,0.4,0.3,0.7
			c-1.3,1.9-1.8,4.3-1.3,6.8c0.7,3.8,3.9,6.6,8,7.1c4.2,0.5,8.1-1.8,9.8-5.5c1.8-4.1,0.3-8.9-3.7-11.2c-0.7-0.4-1.5-0.7-2.3-0.9
			c0.1-0.8,0.2-1.5,0.5-2.2c0.7-2.1,1.8-4.1,3.2-6.5c3.3-5.6,5.3-11.7,5.4-17.1c0.3-12.4-6.7-23.7-18.3-29.4
			c-2.2-1.1-5.6-2.5-9.3-3.3c-0.1,0-0.1,0-0.2,0c-0.7-1-1.8-1.8-3.1-2c-5-0.6-9.9-0.6-14.6,0.1c0.5-1.3,1.3-2.3,2.4-3.2
			c2.2-1.7,4.8-3.1,7.6-4.5c1.1-0.6,2.3-1.2,3.5-1.8c3.2-1.7,7.5-4.1,10-8c0.3-0.5,0.6-1.1,0.9-1.6c1.2-0.3,2.3-0.9,3.4-1.8
			c2.3-2,3.6-5.1,3.4-8.2c-0.3-3.2-2.4-5.9-5.6-7.1c-3.2-1.2-6.8-0.4-9.1,1.9c-2.6,2.6-2.9,5.2-2.8,7.1c0,0.1,0,0.1,0,0.2
			c-2.2-0.3-4.6-0.9-6.5-1.4c-0.8-0.2-1.5-0.4-2.1-0.5c-5.6-1.2-11.2-1.8-16.8-1.7c-6.3,0.1-11.4,0.7-15.9,1.8
			c-1-0.6-2.2-0.8-3.3-0.4c-0.6,0.2-14.7,4.1-22.6,15.7c-3.7,4.6-6.2,10-7.2,15.4c-5.1-0.8-16.4-0.7-27.8,11.7
			c-0.1,0.1-0.1,0.1-0.2,0.2c-0.2,0.2-1.9,2.4-3.5,6.1c-3.6,6.8-5.1,14.4-4.5,22.6c0.3,3.6,1.4,7.8,3.3,12.3
			c0.5,1.2,0.8,2.3,1.1,3.4c-1.4-0.2-2.8,0-4.2,0.6c-3.5,1.4-5.4,5-4.8,8.6c0.4,2.3,2,4.4,4.1,5.6c0.6,0.3,1.1,0.6,1.7,0.7
			C39,184.1,41.6,183.7,43.5,182.3z"/>
		<path class="st10" d="M43.1,181.9c0.6-0.5,1.2-1,1.6-1.7c1.4-0.1,2.8-0.6,4.2-1.2c2.3-1.1,4.4-2.9,5.7-4.9
			c3.3-5,2.4-10.3,1.8-14.5c-0.2-1.1-0.3-2.1-0.4-3c-0.2-2.4,0.4-5.3,1.4-6.6c0.9-1.1,2.1-1.8,5.4-1.5c1.8,0.2,4.1,1.4,6.5,3.5
			c0.3,0.3,0.7,0.7,1.1,1.1c1,1.1,2.3,2.4,4.1,3.3c0.1,0.5,0.2,1,0.4,1.4c0,0,0,0.1,0.1,0.1c-0.2,1.1-0.8,2.6-1.3,3.8l-0.2,0.4
			c-0.9,2.2-2.2,5.3-0.5,9c0.2,0.5,0.5,1,0.8,1.5c-0.4,0.3-0.7,0.6-1,0.9c-2,0.1-3.7,1.5-4,3.5c-1.6,0.8-2.9,2-3.8,3.4
			c-1.1,1.7-1.5,3.7-1.3,5.7c0,0,0,0,0,0c-1.3,0.9-2.2,2-2.9,3.4c-0.8,1.6-1.6,4.8,1.3,8.4c0,0.1,0,0.1-0.1,0.2l-0.1,0.3
			c-0.1,0.2-0.1,0.4-0.2,0.6c0,0,0,0,0,0l0,0.1c-0.1,0.4-0.2,0.7-0.2,1c-0.5,3,1,6.7,3.5,8.3c0.6,0.4,1.1,0.7,1.6,0.9
			c0.1,0.3,0.2,0.7,0.3,1c0,0,0,0,0,0c0.9,2.4,2.7,4.3,5.1,5.2c2.4,0.9,4.8,0.3,6.3-0.2c0.7,0.9,1.8,2.3,3.6,3.1
			c2.9,1.4,5.9,1.6,8.8,0.7c1.4-0.4,2.4-1.2,3-1.8c0,0,0,0,0,0c0.3-0.1,0.7,0.1,2.1,1c1.7,1.1,3.7,1.7,5.9,1.7c0.2,0,0.4,0,0.6,0
			c1.5-0.1,3.4-0.3,5.1-1.6c0.8-0.6,1.4-1.2,2-1.7c0.3-0.3,0.8-0.7,1.1-0.9c0.3,0.1,0.9,0.4,1.3,0.6c0.2,0.1,0.4,0.2,0.5,0.3
			c2.3,1.1,4.7,0.8,6.3,0.5c3.9-0.7,5.5-3.9,6.3-5.7c0.1-0.1,0.1-0.3,0.2-0.4c0.3,0,0.6,0,0.9,0c1.1,0,2.6,0.1,4.3-0.4
			c2.1-0.6,3.4-2,4.4-3.1c0.8-0.9,1.2-2,1.6-2.8c2.3-0.1,5.1-0.4,7.7-2.9c1.4-1.4,2.2-2.8,2.7-4.5c0.3-1.1,0.3-2.1,0.3-2.8
			c0.5-0.3,1.1-0.6,1.6-1.1c1.7-1.4,2.8-3,3.4-4.9c0.9-2.8-0.2-5.1-0.6-5.9c-0.1-0.2-0.1-0.3-0.2-0.4c0,0,0.1-0.1,0.1-0.1
			c1.8-1.8,2.8-4.2,2.6-6.5c-0.1-1.5-0.7-2.9-1.6-4.1c0.1-0.3,0.2-0.5,0.2-0.8c0.1-0.4,0.1-0.8,0.1-1.2c0,0,0,0,0-0.1
			c0-0.1,0-0.2,0-0.3c0-0.2,0-0.5-0.1-0.7c0-0.1,0-0.2-0.1-0.3c-0.1-0.2-0.1-0.5-0.2-0.6c0-0.1,0-0.1-0.1-0.2
			c-0.2-0.5-0.4-0.8-0.7-1.2c0.2-1.5-0.1-3-0.9-4.2c-1.2-1.9-3.3-3.1-5.9-3.1c-0.3,0-0.5,0-0.8,0c-1.1-1.7-3.1-3.1-5.2-3.5
			c0.4-0.8,0.7-1.6,1.2-2.3c1.1-1.9,2.7-3.2,5.7-4.5c1.8-0.8,5.4-1.9,8.8,0.2c0.9,0.6,1.2,1,0.3,5.2c-0.1,0.6-0.2,1.1-0.3,1.7
			c-0.7,3.8-0.7,7.4,0.1,11c0.5,2.2,1.4,4,2.3,5.7l0.2,0.4c0.1,0.2,0.2,0.4,0.3,0.7c-1.3,1.9-1.8,4.3-1.3,6.8c0.7,3.8,3.9,6.6,8,7.1
			c4.2,0.5,8.1-1.8,9.8-5.5c1.8-4.1,0.3-8.9-3.7-11.2c-0.7-0.4-1.5-0.7-2.3-0.9c0.1-0.8,0.2-1.5,0.5-2.2c0.7-2.1,1.8-4.1,3.2-6.5
			c3.3-5.6,5.3-11.7,5.4-17.1c0.3-12.4-6.7-23.7-18.3-29.4c-2.2-1.1-5.6-2.5-9.3-3.3c-0.1,0-0.1,0-0.2,0c-0.7-1-1.8-1.8-3.1-2
			c-5-0.6-9.9-0.6-14.6,0.1c0.5-1.3,1.3-2.3,2.4-3.2c2.2-1.7,4.8-3.1,7.6-4.5c1.1-0.6,2.3-1.2,3.5-1.8c3.2-1.7,7.5-4.1,10-8
			c0.3-0.5,0.6-1.1,0.9-1.6c1.2-0.3,2.4-0.9,3.4-1.8c2.3-2,3.6-5.1,3.4-8.2c-0.3-3.2-2.4-5.9-5.6-7.1c-3.2-1.2-6.8-0.4-9.1,1.9
			c-2.6,2.6-2.9,5.2-2.8,7.1c0,0.1,0,0.1,0,0.2c-2.2-0.3-4.6-0.9-6.5-1.4c-0.8-0.2-1.5-0.4-2.1-0.5c-5.6-1.2-11.2-1.8-16.7-1.7
			c-6.3,0.1-11.4,0.7-15.9,1.8c-1-0.6-2.2-0.8-3.3-0.4C100,80.2,85.9,84.2,78,95.8c-3.7,4.6-6.2,10-7.2,15.4
			c-5.1-0.8-16.4-0.7-27.8,11.7c-0.1,0.1-0.1,0.1-0.2,0.2c-0.2,0.2-1.9,2.4-3.5,6.1c-3.6,6.8-5.1,14.4-4.5,22.6
			c0.3,3.6,1.4,7.8,3.3,12.3c0.5,1.2,0.8,2.3,1.1,3.4c-1.4-0.2-2.8,0-4.2,0.6c-3.5,1.4-5.4,5-4.8,8.6c0.4,2.3,2,4.4,4.1,5.6
			c0.6,0.3,1.1,0.6,1.7,0.7C38.5,183.7,41.2,183.3,43.1,181.9z"/>
		<path class="st11" d="M42.6,181.5c0.6-0.5,1.2-1,1.6-1.7c1.4-0.1,2.8-0.6,4.2-1.2c2.3-1.1,4.4-2.9,5.7-4.9
			c3.3-5,2.4-10.3,1.8-14.5c-0.2-1.1-0.3-2.1-0.4-3c-0.2-2.4,0.4-5.3,1.4-6.6c0.9-1.1,2.1-1.8,5.4-1.5c1.8,0.2,4.1,1.4,6.5,3.5
			c0.3,0.3,0.7,0.7,1.1,1.1c1,1.1,2.3,2.4,4.1,3.3c0.1,0.5,0.2,1,0.4,1.4c0,0,0,0.1,0.1,0.1c-0.2,1.1-0.8,2.6-1.3,3.8l-0.2,0.4
			c-0.9,2.2-2.2,5.3-0.5,9c0.2,0.5,0.5,1,0.8,1.5c-0.4,0.3-0.7,0.6-1,0.9c-2,0.1-3.7,1.5-4,3.5c-1.6,0.8-2.9,2-3.8,3.4
			c-1.1,1.7-1.5,3.7-1.3,5.7c0,0,0,0,0,0c-1.3,0.9-2.2,2-2.9,3.4c-0.8,1.6-1.6,4.8,1.3,8.4c0,0.1,0,0.1-0.1,0.2l-0.1,0.3
			c-0.1,0.2-0.1,0.4-0.2,0.6c0,0,0,0,0,0l0,0.1c-0.1,0.4-0.2,0.7-0.2,1c-0.5,3,1,6.7,3.5,8.3c0.6,0.4,1.1,0.7,1.6,0.9
			c0.1,0.3,0.2,0.7,0.3,1c0,0,0,0,0,0c0.9,2.4,2.7,4.3,5.1,5.2c2.4,0.9,4.8,0.3,6.3-0.2c0.7,0.9,1.8,2.3,3.6,3.1
			c2.9,1.4,5.9,1.6,8.8,0.7c1.4-0.4,2.4-1.2,3-1.8c0,0,0,0,0,0c0.3-0.1,0.7,0.1,2.1,1c1.7,1.1,3.7,1.7,5.9,1.7c0.2,0,0.4,0,0.6,0
			c1.5-0.1,3.4-0.3,5.1-1.6c0.8-0.6,1.4-1.2,2-1.7c0.3-0.3,0.8-0.7,1.1-0.9c0.3,0.1,0.9,0.4,1.3,0.6c0.2,0.1,0.4,0.2,0.5,0.3
			c2.3,1.1,4.7,0.8,6.3,0.5c3.9-0.7,5.5-3.9,6.3-5.7c0.1-0.1,0.1-0.3,0.2-0.4c0.3,0,0.6,0,0.9,0c1.1,0,2.6,0.1,4.3-0.4
			c2.1-0.6,3.4-2,4.4-3.1c0.8-0.9,1.2-2,1.6-2.8c2.3-0.1,5.1-0.4,7.7-2.9c1.4-1.4,2.2-2.8,2.7-4.5c0.3-1.1,0.3-2.1,0.3-2.8
			c0.5-0.3,1.1-0.6,1.6-1.1c1.7-1.4,2.8-3,3.4-4.9c0.9-2.8-0.2-5.1-0.6-5.9c-0.1-0.2-0.1-0.3-0.2-0.4c0,0,0.1-0.1,0.1-0.1
			c1.8-1.8,2.8-4.2,2.6-6.5c-0.1-1.5-0.7-2.9-1.6-4.1c0.1-0.3,0.2-0.5,0.2-0.8c0.1-0.4,0.1-0.8,0.1-1.2c0,0,0,0,0-0.1
			c0-0.1,0-0.2,0-0.3c0-0.2,0-0.5-0.1-0.7c0-0.1,0-0.2-0.1-0.3c-0.1-0.2-0.1-0.5-0.2-0.6c0-0.1,0-0.1-0.1-0.2
			c-0.2-0.5-0.4-0.8-0.7-1.2c0.2-1.5-0.1-3-0.9-4.2c-1.2-1.9-3.3-3.1-5.9-3.1c-0.3,0-0.5,0-0.8,0c-1.1-1.7-3.1-3.1-5.2-3.5
			c0.4-0.8,0.7-1.6,1.2-2.3c1.1-1.9,2.7-3.2,5.7-4.5c1.8-0.8,5.4-1.9,8.8,0.2c0.9,0.6,1.2,1,0.3,5.2c-0.1,0.6-0.2,1.1-0.3,1.7
			c-0.7,3.8-0.7,7.4,0.1,11c0.5,2.2,1.4,4,2.3,5.7l0.2,0.4c0.1,0.2,0.2,0.4,0.3,0.7c-1.3,1.9-1.8,4.3-1.3,6.8c0.7,3.8,3.9,6.6,8,7.1
			c4.2,0.5,8.1-1.8,9.8-5.5c1.9-4.1,0.3-8.9-3.7-11.2c-0.7-0.4-1.5-0.7-2.3-0.9c0.1-0.8,0.2-1.5,0.5-2.2c0.7-2.1,1.8-4.1,3.2-6.5
			c3.3-5.6,5.3-11.7,5.4-17.1c0.3-12.4-6.7-23.7-18.3-29.4c-2.2-1.1-5.6-2.5-9.3-3.3c-0.1,0-0.1,0-0.2,0c-0.7-1-1.8-1.8-3.1-2
			c-5-0.6-9.9-0.6-14.6,0.1c0.5-1.3,1.3-2.3,2.4-3.2c2.2-1.7,4.8-3.1,7.6-4.5c1.1-0.6,2.3-1.2,3.5-1.8c3.2-1.7,7.5-4.1,10-8
			c0.3-0.5,0.6-1.1,0.9-1.6c1.2-0.3,2.3-0.9,3.4-1.8c2.3-2,3.6-5.1,3.4-8.2c-0.3-3.2-2.4-5.9-5.6-7.1c-3.2-1.2-6.8-0.4-9.1,1.9
			c-2.6,2.6-2.9,5.2-2.8,7.1c0,0.1,0,0.1,0,0.2c-2.2-0.3-4.6-0.9-6.5-1.4c-0.8-0.2-1.5-0.4-2.1-0.5c-5.6-1.2-11.2-1.8-16.7-1.7
			c-6.3,0.1-11.4,0.7-15.9,1.8c-1-0.6-2.2-0.8-3.3-0.4c-0.6,0.2-14.7,4.1-22.6,15.7c-3.7,4.6-6.2,10-7.2,15.4
			c-5.1-0.8-16.4-0.7-27.8,11.7c-0.1,0.1-0.1,0.1-0.2,0.2c-0.2,0.2-1.9,2.4-3.5,6.1c-3.6,6.8-5.1,14.4-4.5,22.6
			c0.3,3.6,1.4,7.8,3.3,12.3c0.5,1.2,0.8,2.3,1.1,3.4c-1.4-0.2-2.8,0-4.2,0.6c-3.5,1.4-5.4,5-4.8,8.6c0.4,2.3,2,4.4,4.1,5.6
			c0.6,0.3,1.1,0.6,1.7,0.7C38.1,183.2,40.8,182.8,42.6,181.5z"/>
	</g>
	<path class="st0" d="M42.6,181.5c0.6-0.5,1.2-1,1.6-1.7c1.4-0.1,2.8-0.6,4.2-1.2c2.3-1.1,4.4-2.9,5.7-4.9c3.3-5,2.4-10.3,1.8-14.5
		c-0.2-1.1-0.3-2.1-0.4-3c-0.2-2.4,0.4-5.3,1.4-6.6c0.9-1.1,2.1-1.8,5.4-1.5c1.8,0.2,4.1,1.4,6.5,3.5c0.3,0.3,0.7,0.7,1.1,1.1
		c1,1.1,2.3,2.4,4.1,3.3c0.1,0.5,0.2,1,0.4,1.4c0,0,0,0.1,0.1,0.1c-0.2,1.1-0.8,2.6-1.3,3.8l-0.2,0.4c-0.9,2.2-2.2,5.3-0.5,9
		c0.2,0.5,0.5,1,0.8,1.5c-0.4,0.3-0.7,0.6-1,0.9c-2,0.1-3.7,1.5-4,3.5c-1.6,0.8-2.9,2-3.8,3.4c-1.1,1.7-1.5,3.7-1.3,5.7c0,0,0,0,0,0
		c-1.3,0.9-2.2,2-2.9,3.4c-0.8,1.6-1.6,4.8,1.3,8.4c0,0.1,0,0.1-0.1,0.2l-0.1,0.3c-0.1,0.2-0.1,0.4-0.2,0.6c0,0,0,0,0,0l0,0.1
		c-0.1,0.4-0.2,0.7-0.2,1c-0.5,3,1,6.7,3.5,8.3c0.6,0.4,1.1,0.7,1.6,0.9c0.1,0.3,0.2,0.7,0.3,1c0,0,0,0,0,0c0.9,2.4,2.7,4.3,5.1,5.2
		c2.4,0.9,4.8,0.3,6.3-0.2c0.7,0.9,1.8,2.3,3.6,3.1c2.9,1.4,5.9,1.6,8.8,0.7c1.4-0.4,2.4-1.2,3-1.8c0,0,0,0,0,0
		c0.3-0.1,0.7,0.1,2.1,1c1.7,1.1,3.7,1.7,5.9,1.7c0.2,0,0.4,0,0.6,0c1.5-0.1,3.4-0.3,5.1-1.6c0.8-0.6,1.4-1.2,2-1.7
		c0.3-0.3,0.8-0.7,1.1-0.9c0.3,0.1,0.9,0.4,1.3,0.6c0.2,0.1,0.4,0.2,0.5,0.3c2.3,1.1,4.7,0.8,6.3,0.5c3.9-0.7,5.5-3.9,6.3-5.7
		c0.1-0.1,0.1-0.3,0.2-0.4c0.3,0,0.6,0,0.9,0c1.1,0,2.6,0.1,4.3-0.4c2.1-0.6,3.4-2,4.4-3.1c0.8-0.9,1.2-2,1.6-2.8
		c2.3-0.1,5.1-0.4,7.7-2.9c1.4-1.4,2.2-2.8,2.7-4.5c0.3-1.1,0.3-2.1,0.3-2.8c0.5-0.3,1.1-0.6,1.6-1.1c1.7-1.4,2.8-3,3.4-4.9
		c0.9-2.8-0.2-5.1-0.6-5.9c-0.1-0.2-0.1-0.3-0.2-0.4c0,0,0.1-0.1,0.1-0.1c1.8-1.8,2.8-4.2,2.6-6.5c-0.1-1.5-0.7-2.9-1.6-4.1
		c0.1-0.3,0.2-0.5,0.2-0.8c0.1-0.4,0.1-0.8,0.1-1.2c0,0,0,0,0-0.1c0-0.1,0-0.2,0-0.3c0-0.2,0-0.5-0.1-0.7c0-0.1,0-0.2-0.1-0.3
		c-0.1-0.2-0.1-0.5-0.2-0.6c0-0.1,0-0.1-0.1-0.2c-0.2-0.5-0.4-0.8-0.7-1.2c0.2-1.5-0.1-3-0.9-4.2c-1.2-1.9-3.3-3.1-5.9-3.1
		c-0.3,0-0.5,0-0.8,0c-1.1-1.7-3.1-3.1-5.2-3.5c0.4-0.8,0.7-1.6,1.2-2.3c1.1-1.9,2.7-3.2,5.7-4.5c1.8-0.8,5.4-1.9,8.8,0.2
		c0.9,0.6,1.2,1,0.3,5.2c-0.1,0.6-0.2,1.1-0.3,1.7c-0.7,3.8-0.7,7.4,0.1,11c0.5,2.2,1.4,4,2.3,5.7l0.2,0.4c0.1,0.2,0.2,0.4,0.3,0.7
		c-1.3,1.9-1.8,4.3-1.3,6.8c0.7,3.8,3.9,6.6,8,7.1c4.2,0.5,8.1-1.8,9.8-5.5c1.9-4.1,0.3-8.9-3.7-11.2c-0.7-0.4-1.5-0.7-2.3-0.9
		c0.1-0.8,0.2-1.5,0.5-2.2c0.7-2.1,1.8-4.1,3.2-6.5c3.3-5.6,5.3-11.7,5.4-17.1c0.3-12.4-6.7-23.7-18.3-29.4
		c-2.2-1.1-5.6-2.5-9.3-3.3c-0.1,0-0.1,0-0.2,0c-0.7-1-1.8-1.8-3.1-2c-5-0.6-9.9-0.6-14.6,0.1c0.5-1.3,1.3-2.3,2.4-3.2
		c2.2-1.7,4.8-3.1,7.6-4.5c1.1-0.6,2.3-1.2,3.5-1.8c3.2-1.7,7.5-4.1,10-8c0.3-0.5,0.6-1.1,0.9-1.6c1.2-0.3,2.3-0.9,3.4-1.8
		c2.3-2,3.6-5.1,3.4-8.2c-0.3-3.2-2.4-5.9-5.6-7.1c-3.2-1.2-6.8-0.4-9.1,1.9c-2.6,2.6-2.9,5.2-2.8,7.1c0,0.1,0,0.1,0,0.2
		c-2.2-0.3-4.6-0.9-6.5-1.4c-0.8-0.2-1.5-0.4-2.1-0.5c-5.6-1.2-11.2-1.8-16.7-1.7c-6.3,0.1-11.4,0.7-15.9,1.8
		c-1-0.6-2.2-0.8-3.3-0.4c-0.6,0.2-14.7,4.1-22.6,15.7c-3.7,4.6-6.2,10-7.2,15.4c-5.1-0.8-16.4-0.7-27.8,11.7
		c-0.1,0.1-0.1,0.1-0.2,0.2c-0.2,0.2-1.9,2.4-3.5,6.1c-3.6,6.8-5.1,14.4-4.5,22.6c0.3,3.6,1.4,7.8,3.3,12.3c0.5,1.2,0.8,2.3,1.1,3.4
		c-1.4-0.2-2.8,0-4.2,0.6c-3.5,1.4-5.4,5-4.8,8.6c0.4,2.3,2,4.4,4.1,5.6c0.6,0.3,1.1,0.6,1.7,0.7C38.1,183.2,40.8,182.8,42.6,181.5z
		"/>
	<g>
		<g>
			<g>
				<g>
					<g>
						<g>
							<path class="st12" d="M148.1,178.8c1.5-1.5,2-3.9,0.1-5.3c-1.1-0.8-1.7-1.4-0.7-2.7c0.3-0.3,0.5-0.9,0.6-1.3
								c0.3-1.3-1.8-2-1.3-3.2c0.9-1.9-0.2-3.3-2.3-3.4c-0.4,0-0.8,0-1.2,0.1c-1.8,0.6-2.4-1-3.1-2.2c-0.4-0.7-1.6-1.4-2.4-1.5
								c-0.9-0.1-1.8,0-2.6,0.5c-1.2,0.7-2.4,1.5-3.3,0c-0.3-0.5-0.5-0.8-1-1.2c-0.9-0.8-2.1-0.4-3.1,0.3c-0.7-0.2-1.4-0.6-2.1-0.4
								c-1.1,0.2-2,0.5-2.9,1.1c-1.8,1.2-3.1,1.4-5.2,0.8c-0.9-0.3-1.8-0.5-2.8-0.4c-1.2,0.1-2.2,0.5-3.2,1.1c-1.4,0.9-2,2-3.9,2
								c-1.4,0-3-0.6-4.4-0.8c-1.1-0.1-2.2,0.2-3.2,0.6c-1.1,0.4-1.6,0.9-2.3,1.8c-1.4,1.7-3,1.7-5,1.9c-1.9,0.2-3.2,0.9-4.3,2.5
								c-1,1.5-1.4,2.9-3.6,3c-0.9,0.1-1.8-0.1-2.6,0.3c-0.5,0.2-1.3,0.5-1.5,1.1c-0.2,0.3-0.3,1.3-0.6,1.8c-0.5,0-0.9,0-1.3-0.1
								c-1,0-3,0-3.6,1c-0.2,0.4-0.7,1-0.8,1.4c0,0.4,0,0.8,0,1.3c0,0.7-1.6,0.7-2,0.8c-3.5,0.6-6.1,3.2-5.1,6.8
								c0.7,2.5-0.9,2.1-2,2.9c-0.7,0.5-1.1,1-1.5,1.8c-0.7,1.6,0,3,1,4.2c1.6,1.9,0.4,3.3,0,5.4c-0.2,1.2,0.5,3.2,1.6,3.9
								c0.8,0.5,1.7,0.8,2.6,1.3c0.7,0.4,0.7,1.4,0.9,2.2c0,0.1,0,0.2,0,0.2c0.4,1.3,1.3,2.5,2.6,3c1.1,0.4,2.5,0.1,3.6-0.3
								c4.3-1.8,3.8,2,6.7,3.4c1.9,0.9,3.8,1.1,5.7,0.5c0.8-0.2,1.4-1,2.1-1.4c2.6-1.3,4.5-0.3,6.7,1.1c1.2,0.8,2.5,1,4,0.9
								c1,0,2-0.2,2.8-0.8c1.3-0.9,2.4-2.4,3.8-3.1c2-1,3.8,0,5.5,0.9c1.1,0.5,2.5,0.4,3.7,0.2c2.5-0.4,2.9-3.4,4.2-5.1
								c0.8-0.7,1.8-1,2.9-1c1.5,0,2.7,0.2,4.2-0.2c1-0.3,1.7-1,2.3-1.8c1.1-1.3,1.1-4.3,3.5-4.3c2.3,0,4.2,0.1,6-1.7
								c0.8-0.8,1.3-1.6,1.6-2.6c0.5-1.8-0.5-3,1.1-4.6c0.8-0.5,1.7-0.9,2.3-1.3c1-0.8,1.7-1.7,2.1-2.9c0.3-0.9,0-1.9-0.4-2.7
								c-0.5-1.1-2.2-2-1.2-3.5C146.6,180,147.4,179.4,148.1,178.8z"/>
							<path class="st13" d="M65.1,193.9c-1.9-2.2,0-4.3,2-4.9c0.4-0.1,0.6-0.1,0.8-0.2c1.1-0.2,2.1-0.6,3.2-1
								c2.2-0.8,4.5-1.4,6.8-1.9c1.9-0.5,3.9-1,5.8-1.6c1.8-0.5,3.8-0.9,5.5-1.6c0,0,0,0,0,0c-2,0.7-4.2,0.9-6.3,1.5
								c-1.9,0.5-3.9,1-5.8,1.4c-2.8,0.6-5.9,1.3-8.6,2.5c0.2-0.8-0.2-2-0.4-2.5c-0.7-2.4,0.8-4.2,2.7-5.2c1.3-0.6,2.1-0.3,3.4-0.5
								c5.5,0.1,11,0.3,16.5,0.6c0.1,0,0.1-0.1,0-0.1c-3.2-0.4-6.5-0.4-9.7-0.7c-1.9-0.1-4.2-0.3-6.2-0.1c0.2-0.2,0.3-0.5,0.3-0.9
								c0-0.7-0.1-1.2,0.3-1.9c0.7-1.4,2.8-1.2,4.1-1.2c4.7,0.2,9.5,0.3,14.1,1.2c0,0,0,0,0,0c-4.3-0.9-8.8-1.4-13.2-1.6
								c0.2-0.3,0.3-0.7,0.4-1c0.9-2.7,4.6-0.3,6.1-2.2c0.6-0.7,0.9-1.6,1.3-2.4c0.9-2.3,3-2.5,5.1-2.3c2.6,0.2,4-0.7,5.5-2.7
								c2.4-3.2,6.8-0.2,10-0.7c0.9-0.1,1.6-0.7,2.2-1.3c1.5-1.4,3.3-2.1,5.4-1.7c2,0.4,3.8,1.3,5.7,0.1c1.4-0.8,2.7-1.7,4.4-1.5
								c0.1,0,0.1,0,0.2,0c-0.2,0.2-0.4,0.4-0.6,0.6c0.8-0.7,1.8-1.5,2.7-1.6c0.3,0,0.5,0,0.7,0.1c0.6,0.1,1.2,0.5,1.7,1.4
								c0.4,0.7,0.8,0.9,1.6,1.1c0.5,0.1,1-0.1,1.5-0.3c1.7-0.9,2.5-1.5,4.3-0.4c1.8,1.1,1.5,3.8,4.1,3.5c1.5-0.2,4,0,3.2,2
								c-1,0.9-2.5,1.7-2.8,3.1c-0.4,1.8,0.3,2.8,1.4,4.2c2,2.6-2,4-3.3,5.5c-1,1.2-0.3,2.8,0,4.1c0.2,0.9,0.5,1.7,0.8,2.5
								c1,2.7-1.3,4.1-3.5,4.5c-1.8,0.3-3.5,0.3-4.9,1.5c-1,0.8-1.6,2.3-1.7,3.5c-0.1,1.5-0.1,2.8-1.1,4c-0.4,0.5-1.3,1.3-2.2,1.6
								c-2-0.4-3.6-1.6-5.7-1.2c-1.9,0.4-2.6,2.5-3.2,4c-0.7,1.6-1.1,2.9-2.5,4c-1.6,1.4-3.7,0.8-5.4,0c-0.6-0.3-1.1-0.5-1.7-0.7
								c-1.2-0.7-2.6-0.8-3.8,0.1c-2.3,1.8-4.3,5.3-7.8,4.5c-1.3-0.3-2.3-0.6-3.4-1.3c-0.9-0.5-1.6-1.4-2.5-1.9
								c-2-1.1-3.6-0.9-5.6-0.1c-1.8,0.7-3.5,1.7-5.5,1.1c-1.7-0.6-2.4-2.2-2.9-3.7c-0.6-1.8-1.2-3.1-3.3-3.1c-1.1,0-2.3,0.8-3.3,1
								c-2.4,0.7-4.5-1-5.3-3.1c-0.2-0.6-0.2-1.5-0.2-2.3c0.1-0.2,0.2-0.5,0.2-0.7C66.8,195.6,66,195,65.1,193.9z"/>
							<path class="st12" d="M85.4,183.7c0.1-0.3,0.2-0.5,0.3-0.7c0.2-0.5,0.5-1,1-1.3c0.7-0.4,1.5-0.7,2.3-0.9
								c0.2-0.1,0.4-0.1,0.6-0.2c-0.8,0-1.6-0.1-2.5-0.1c-1.1,0.3-2.4,0-3.2,0.7c-1.4,1.2-0.6,2-0.1,3
								C84.3,183.9,84.8,183.8,85.4,183.7z"/>
							<path class="st12" d="M125.1,176.2c-0.4-0.4-0.6-0.8-0.7-1.4c-0.1-0.5,0.1-1.2,0.3-1.6c0.7-1.4,1.3-4.3-1-4
								c-1.9,0.2-3.6,0.9-5.3-0.5c-1.1-0.9-2.4-2.4-4.1-1.8c-1.1,0.4-1.8,1.2-2.8,1.8c-2.3,1.3-4.8,1.5-7.4,1.2c-2-0.3-6.3-2-7.8,0
								c-1,1.3-1.7,4.3-3.4,4.6c0.1,0.2,0,0.4-0.3,0.4c-1-0.1-3.4-0.2-3.9,1.1c1.7,0.2,3.4,0.5,5,0.9c0,0,0,0,0,0
								c-1.7-0.3-3.4-0.5-5.1-0.7c0,0.1,0,0.3,0,0.4c0,0.4,0.1,0.9,0.1,1.3c0,0.6-0.2,1.2-0.6,1.7c-0.2,0.2-0.3,0.3-0.5,0.5
								c0.7,0.1,1.4,0.1,2.1,0.2c0.9-0.6,1.1-1.8,1.5-2.9c0.1-0.4,0.5-0.2,0.7,0.1c0.3-0.2,0.7-0.2,1.1-0.3c0.4,0,0.9,0.1,1.3,0.1
								c1.2,0,1.5-1.5,1.8-2.3c0.2-0.5,0.4-1.1,0.9-1.4c1.8-1.2,4,0,6-0.5c2.2-0.6,4-2.8,6.5-2.5c1.3,0.2,2.8,1,4.1,0.8
								c1.2-0.2,2.3-0.7,3.4-0.7c1-0.1,1.5,0.7,1.7,1.6c0.2,1.3,0.8,1.9,1.6,2.8c0.3,0.3,0.4,0.9,0.4,1.3c-0.1,0.5-0.3,0.9-0.8,1.3
								c-0.8,0.7-1.7,1.2-0.8,2.5c0.2,0.3,0.3,0.5,0.4,0.8c0.4,1.1-0.5,2.2-1.4,2.6c-1.3,0.5-1.9,1.1-2.1,2.7
								c-0.1,0.8-0.2,1.4-0.7,2c-1.1,1.3-3.4,0.6-4.8,1.2c-1.7,0.7-1.6,3.2-3.4,3.7c-0.8,0.2-1.7,0.3-2.5,0
								c-1.3-0.6-2.6-1.9-4.1-0.7c-0.8,0.7-1.8,2-3,1.9c-2.4-0.3-2.5-4.6-5.6-2.3c-1.1,0.8-2.1,1.6-3.4,1c-2.2-0.9,0.9-4.3-2.3-4.9
								c-0.9-0.2-2.1-0.9-1.6-2c0.3-0.8,0.5-1.6,0.8-2.4c-0.5,0.1-1,0.2-1.4,0.4c0.1,0.2,0.1,0.3,0.1,0.5c0,0.8-0.2,1.4-0.7,2
								c-2,2.6,0.7,2.7,2,3.5c0.8,0.6,1.1,1.3,1,2.3c-0.1,2,1.1,3.7,3.3,3.1c1.2-0.4,2.3-1,3.6-0.9c2.4,0.2,3.1,4.1,6.1,2.2
								c2.1-1.3,3.6-2.5,6.1-1.6c1.1,0.4,2.7,1.1,3.8,0.5c1-0.5,1.5-1.4,2.1-2.3c0.9-1.3,1.9-2.2,3.5-2.5c0.5-0.1,1.2,0,1.7-0.2
								c1.4-0.6,1.3-1.7,1.4-2.9c0-0.6,0.1-1.3,0.4-1.8c0.9-1.5,2.4-1.6,3.7-2.4c2.2-1.3,0.3-3.1,1.4-4.8
								C123.7,178.4,126.5,177.4,125.1,176.2z"/>
							<path class="st0" d="M68.5,188.1c0.4-0.2,0.9-0.3,1.3-0.5c0.3-0.7,0.1-1.4,0.2-2.4c0.1-1.9,1.3-2.9,2.9-3.6
								c1.2-0.5,2.6-0.7,3.8-1.4c0.1-0.1,0.3-0.2,0.4-0.3c-0.9,0-1.9,0-2.8-0.1c-1.3,0.2-2.1-0.1-3.4,0.5c-1.9,1-3.5,2.8-2.7,5.2
								C68.2,186.1,68.7,187.3,68.5,188.1z"/>
							<path class="st0" d="M77.5,179.5c0.7-0.7,1.2-1.6,2-2.3c1.1-0.8,2.4-1.2,3.8-1.4c-1.2-0.1-2.5-0.1-3.7-0.2
								c-1.3-0.1-3.3-0.2-4.1,1.2c-0.4,0.7-0.3,1.2-0.3,1.9c0,0.4-0.1,0.7-0.3,0.9C75.8,179.5,76.6,179.5,77.5,179.5z"/>
							<path class="st0" d="M146.2,165.9c0.8-2-1.7-2.2-3.2-2c-2.6,0.3-2.4-2.4-4.1-3.5c-1.8-1.1-2.6-0.4-4.3,0.4
								c-0.4,0.2-1,0.4-1.5,0.3c-0.8-0.2-1.2-0.4-1.6-1.1c-0.5-0.9-1.1-1.3-1.7-1.4c-0.2-0.1-0.5-0.1-0.7-0.1
								c-0.9,0.1-1.9,0.9-2.7,1.6c0.2-0.2,0.4-0.4,0.6-0.6c-0.1,0-0.1,0-0.2,0c-1.7-0.3-3,0.6-4.4,1.5c-1.9,1.2-3.8,0.4-5.7-0.1
								c-2.1-0.5-3.8,0.3-5.4,1.7c-0.6,0.6-1.3,1.2-2.2,1.3c-3.2,0.5-7.5-2.5-10,0.7c-1.5,2-2.8,2.9-5.5,2.7c-2.1-0.2-4.2,0-5.1,2.3
								c-0.3,0.9-0.7,1.7-1.3,2.4c-1.5,1.9-5.2-0.5-6.1,2.2c-0.1,0.3-0.2,0.7-0.4,1c1.5,0.1,3,0.2,4.5,0.3c0.3-0.2,0.5-0.8,0.8-1
								c0.4-0.4,1.1-0.4,1.6-0.3c3.1,0.1,5.2,0,7.6-1.9c0-0.1,0-0.2,0.1-0.3c2.6-1.6,3.4-4.6,6.9-4.7c1.6,0,3.8,0.7,5.2-0.4
								c0.6-0.5,1.2-1.1,1.9-1.5c1.1-0.7,2.2-1,3.5-1c2.8,0.1,5.5,0.3,8.1-0.8c1.5-0.6,2.9-1.4,4.5-1.3c1.9,0.1,3.3,1.5,5.4,1.2
								c1.3-0.2,3.1-0.8,4.2-0.1c0.8,0.4,0.9,0.8,1.3,1.5c0.7,1.2,1.3,0.8,2.3,1.2c0.8,0.4,1.2,0.9,1.2,1.8c0.1,0.6-0.3,1.2-0.5,1.7
								c-0.5,1.4-0.4,2.1,0.5,3.3c0.4,0.6,1,1.5,0.4,2.2c-1.3,1.7-4.4,1.7-4.3,4.5c0.1,1.3,0.3,2.5,0,3.7c-0.5,2.3-3.5,1.9-5.4,2.4
								c-0.9,0.4-1.3,1.2-1.5,2.5c-0.1,1-0.2,2.1-0.6,3.1c-0.4,1.1-1,2-1.9,2.5c0,0.1-0.1,0.2-0.2,0.2c-0.5,0.3-1,0.4-1.6,0.4
								c-2.4-0.3-4.9-0.5-6.3,1.9c-0.7,1.1-1.1,2.4-1.5,3.6c-0.3,1.1-0.7,3.3-2.2,3.5c-2.1,0.3-3.6-1.4-5.5-2.1
								c-3.3-1.1-5.3,1.4-7.5,3.3c-1.4,1.3-3,2.4-4.9,1.5c-2.3-1.1-3-4.5-6.2-3.7c-2.5,0.6-4.5,2.5-7.1,2.4
								c-1.6-0.1-2.6-1.6-3.2-2.9c-1-2.1-2.2-3.4-4.7-2.3c-0.9,0.4-1.8,0.8-2.8,0.9c-1.1,0.1-2.6-0.3-3.1-1.4
								c-0.4-0.7-0.6-1.7-0.4-2.6c0.3-1.1-0.2-1.2-0.9-1.8c-1.2-1-1.5-2.4-1-3.9c0.3-0.8,0.8-1.5,1.4-2.1c0.1-0.2,0.3-0.3,0.4-0.4
								c-0.5,0.2-1,0.3-1.5,0.4c-0.2,0.1-0.4,0.1-0.8,0.2c-2,0.6-3.9,2.7-2,4.9c0.9,1,1.7,1.7,1.8,3.2c0,0.2-0.1,0.4-0.2,0.7
								c0,0.8,0,1.6,0.2,2.3c0.8,2.1,2.9,3.8,5.3,3.1c1-0.3,2.2-1,3.3-1c2.1,0,2.7,1.2,3.3,3.1c0.5,1.5,1.2,3.2,2.9,3.7
								c2,0.7,3.7-0.4,5.5-1.1c2-0.8,3.6-1,5.6,0.1c0.9,0.5,1.6,1.4,2.5,1.9c1.2,0.7,2.1,1,3.4,1.3c3.4,0.8,5.4-2.7,7.8-4.5
								c1.2-0.9,2.6-0.8,3.8-0.1c0.6,0.2,1.1,0.4,1.7,0.7c1.8,0.8,3.8,1.3,5.4,0c1.4-1.1,1.8-2.5,2.5-4c0.7-1.5,1.4-3.6,3.2-4
								c2.1-0.4,3.7,0.8,5.7,1.2c0.9-0.3,1.7-1.1,2.2-1.6c1-1.2,0.9-2.6,1.1-4c0.1-1.2,0.7-2.7,1.7-3.5c1.5-1.2,3.1-1.2,4.9-1.5
								c2.2-0.4,4.4-1.8,3.5-4.5c-0.3-0.8-0.6-1.7-0.8-2.5c-0.3-1.2-1-2.9,0-4.1c1.2-1.5,5.3-2.9,3.3-5.5c-1.1-1.5-1.8-2.4-1.4-4.2
								C143.6,167.6,145.2,166.8,146.2,165.9z"/>
							<path class="st12" d="M146.9,186.7c-0.1-0.1-0.3-0.2-0.5-0.3c-0.5-0.2-0.9-0.6-1.3-0.9c0,0-0.1,0-0.1,0.1
								c0.3,0.3,0.7,0.6,1,0.9c0.2,0.2,0.5,0.4,0.7,0.5c-0.5,1.8-2.5,2.5-3.9,3.7c-0.7,0.5-1.5,1-1.7,1.9c-0.5,2,0.6,3.4-1.3,5.1
								c-1.2,1.2-3.2,1.6-4.8,1.8c-0.1,0-0.2,0-0.3,0c-0.3-0.7-0.9-1.2-1.4-1.8c0,0-0.1,0-0.1,0c0.4,0.6,0.7,1.2,1.2,1.8
								c-0.9,0.1-1.5,0.2-2.3,0.8c-0.6,0.5-1,1.4-1.2,2.2c-0.6,1.9-2.1,2.7-3.8,3.1c-0.2-0.6-0.6-1.2-0.9-1.8
								c-0.4-0.8-0.8-1.7-1.4-2.4c0,0-0.1,0-0.1,0.1c0.5,0.9,0.8,1.9,1.2,2.8c0.1,0.3,0.3,1,0.6,1.4c-0.7,0.1-1.4,0.2-2.1,0.2
								c-0.2,0-0.5,0-0.8,0.1c0,0,0,0-0.1,0c-1,0-1.7,0.4-2.3,1c-0.1-0.2-0.1-0.3-0.2-0.5c-0.1-0.4-0.4-0.7-0.4-1.1c0,0-0.1,0-0.1,0
								c0,0.4,0.2,0.8,0.2,1.2c0,0.2,0.1,0.5,0.2,0.6c-1.2,1.4-1.8,3.8-3.9,4.5c-1.7,0.5-3.2-0.1-4.6-0.7c-0.2-0.7-0.5-1.5-0.7-2.2
								c0-0.1-0.1,0-0.1,0c0.1,0.5,0.2,1.1,0.3,1.6c0,0.1,0.1,0.2,0.1,0.4c-1.2-0.4-2.5-0.7-3.9,0c-1.3,0.6-2.1,1.9-3.2,2.8
								c-0.8,0.7-1.8,1.1-2.9,1.1c0,0,0.1-0.1,0.1-0.1c0-0.9-0.3-1.7-0.4-2.5c0-0.1-0.1,0-0.1,0c0,0.8,0,1.8,0.3,2.6c0,0,0,0,0,0
								c-1.4,0-2.8-0.5-3.9-1.2c-1.4-0.9-2.6-1.3-3.8-1.4c-1.8-0.3-3.3,0.6-5.2,1.3c0.6-1.3,0.6-2.9,1.1-4.3c0,0,0,0,0,0
								c-0.7,1.4-0.9,2.9-1.4,4.4c-0.4,0.1-0.9,0.3-1.3,0.4c-2.2,0.4-4.9-0.7-6.5-2.1c-1.3-1.2-1.8-2.2-3.7-2.1
								c-0.4,0-0.9,0.1-1.3,0.2c0.4-0.4,0.6-0.9,0.9-1.3c0.3-0.5,0.6-1,0.9-1.6c0,0,0,0,0,0c-0.5,1-1.3,1.8-1.8,2.8c0,0,0,0.1,0,0.1
								c-1.1,0.3-2.1,0.7-3.5,0.3c-1.3-0.3-1.8-1.2-2.1-2.2c0.8-0.5,1.4-1.3,2-1.9c0.9-0.9,1.8-1.8,2.6-2.7c0,0,0,0,0,0
								c-1.6,1.3-3.1,2.9-4.7,4.3c-0.1-0.7-0.2-1.4-0.4-2.1c-0.3-1.2-2.5-1.5-3.3-2.1c-1.8-1.3-1.6-3.2-0.6-5c0,0,0-0.1,0.1-0.1
								c0,0.4-0.1,0.7-0.1,1c0,0.9,0.5,1.7,0.9,2.5c1.1,1.8,3.2,2,5,1.5c0.5-0.1,0.9-0.3,1.4-0.6c1.6-0.7,3.5-0.2,4.2,1.5
								c0.4,1,0.6,2.1,1,3.1c0.8,1.9,2.8,2.6,4.7,2.5c0.8,0,1.4-0.5,2-1c2-1.4,4.1-2.4,6.4-1c1,0.6,1.7,1.9,2.6,2.7
								c0.7,0.5,1.6,1,2.4,1.2c1.7,0.6,3.8,0,5.2-1.1c1-0.8,1.8-1.7,2.7-2.5c1.1-1,2-1.6,3.1-1.7c2.2,0,3.9,1.8,6.2,2.3
								c1.8,0.4,3.5-0.6,4.7-1.8c1.6-1.5,1.6-3.7,2.5-5.6c2-4,4.8,0.4,7.4-0.5c0.5,0,0.9-0.1,1.3-0.2c1.6-0.4,1.8-1.6,2.1-3
								c0.2-0.8,0.1-1.8,0.2-2.6c0.2-2.8,1.6-4.3,4.4-4.2c1.8,0.1,3.9-0.3,5.3-1.7c1.3-1.3,1.2-2.8,0.6-4.4c-0.5-1.7-1.9-4.4-0.2-6
								c0.8-0.7,2-0.9,2.6-1.7c0.9-1.1,1.7-2.4,0.6-3.7c-1.3-1.5-2.3-3.5-0.8-5.4c0.3-0.4,0.6-0.7,0.9-1c0,0.4,0.3,0.7,0.6,1.1
								c1.2,1.4,0.2,2-0.4,3.3c-0.2,0.6,0,1,0.3,1.5c0.2,0.4,0.5,0.6,0.8,0.9c1.2,1.2,1.6,2.7,0.5,4c-0.7,0.8-1.5,1.4-2.1,2.3
								C143.9,182.7,147.3,184.2,146.9,186.7z"/>
							<path class="st12" d="M91.5,184.5c-7.8,3.2-15.3,7.1-22.5,11.3c-0.1,0.1-0.1,0.3,0.1,0.2c3.6-1.7,7.1-3.9,10.7-5.8
								C83.6,188.3,87.5,186.3,91.5,184.5C91.6,184.5,91.5,184.5,91.5,184.5z"/>
							<path class="st12" d="M93,187c-2.8,2.2-5.6,4.4-8.3,6.8c-2.7,2.3-5.2,4.9-7.8,7.3c0,0,0,0.1,0,0.1
								C82.7,197.1,87.6,191.7,93,187C93.1,187.1,93.1,187,93,187z"/>
							<path class="st12" d="M97.5,186c-2.6,3.5-5.6,6.8-8.4,10.2c-2.5,3.1-4.6,6.5-6.8,9.9c-0.1,0.1,0.1,0.2,0.2,0.1
								c2.5-3.1,4.8-6.3,7.2-9.5C92.3,193.1,95.1,189.6,97.5,186C97.5,186,97.5,186,97.5,186z"/>
							<path class="st12" d="M101.6,185.7c-1.5,3.3-3.3,6.5-4.7,9.9c-1.5,3.6-3.1,7.3-4.5,11c-0.1,0.2,0.2,0.3,0.2,0.1
								c1.9-3.5,3.5-7.1,4.9-10.8C99,192.4,100.4,189.1,101.6,185.7C101.7,185.7,101.7,185.6,101.6,185.7z"/>
							<path class="st12" d="M102.9,186.3C102.9,186.3,102.9,186.3,102.9,186.3c-0.2,7.6-2.1,15-2.1,22.7c0,0.2,0.3,0.1,0.3,0
								C102,201.4,103.1,193.8,102.9,186.3z"/>
							<path class="st12" d="M107.7,184.4C107.7,184.3,107.6,184.4,107.7,184.4c1.4,6.9,2.7,13.8,4.4,20.6c0,0.1,0.2,0,0.2-0.1
								C111.6,198.1,109.6,191.1,107.7,184.4z"/>
							<path class="st12" d="M114.3,195.7c-1.1-2.5-2.5-4.8-3.5-7.3c0,0-0.1,0-0.1,0c0.9,2.6,2.1,5,3.1,7.5c1,2.7,2.1,5.5,3.6,8
								c0.1,0.1,0.3,0,0.3-0.2C116.7,201,115.4,198.3,114.3,195.7z"/>
							<path class="st12" d="M127.4,197.8c-2.4-3.1-4.9-5.9-7.4-8.9c2.2,2.2,4.5,4.3,6.9,6.3c0.1,0.1,0.3-0.1,0.2-0.2
								c-2.4-2.5-4.9-5-7.4-7.4c-1.2-1.2-2.4-2.3-3.7-3.3c-0.4-0.3-2.4-2.5-2.9-2.5c0,0,0,0,0,0c0,0,0,0,0,0l0,0
								c-0.4-0.4-0.8-0.8-1.2-1.2c0,0-0.1,0-0.1,0.1c0.4,0.5,0.9,1,1.4,1.5c0.4,0.6,1,1.1,1.4,1.5c0.5,0.6,1.1,1.1,1.7,1.7
								c1.1,1.2,2.1,2.4,3.1,3.6c2.5,3,5.1,6.1,7.8,9C127.3,198.1,127.4,197.9,127.4,197.8z"/>
							<path class="st12" d="M137.1,187.8c-6.9-3.7-14.5-6.3-21.9-8.7c0,0-0.1,0.1,0,0.1c3.6,1.4,7.3,2.7,10.9,4.2
								c3.7,1.5,7.3,3.3,11,4.7C137.1,188.1,137.3,187.9,137.1,187.8z"/>
							<path class="st12" d="M141.3,177.4c-4.1-0.1-8.3,0.1-12.5,0.3c-4.2,0.1-8.4,0.3-12.6,0.6c0,0,0,0,0,0
								c4.2-0.1,8.4-0.2,12.5-0.2c4.2,0,8.4,0.2,12.5-0.4C141.4,177.7,141.5,177.4,141.3,177.4z"/>
							<path class="st12" d="M141.1,173.7c-3.6,0.1-7.3,0.4-10.9,0.8c-4.5,0.4-8.8,1.5-13.3,2c0,0,0,0,0,0c3.9,0,7.9-0.8,11.7-1.1
								c4.2-0.4,8.3-0.5,12.4-1.3C141.2,174,141.3,173.7,141.1,173.7z"/>
							<path class="st12" d="M139.6,166.2c-4.6,0.9-9,2.5-13.5,4c-4.1,1.4-8.6,2.9-12.2,5.4c0,0,0,0,0,0c3.8-2.1,8.3-3.3,12.3-4.7
								c4.4-1.5,8.9-2.8,13.3-4.4C139.8,166.4,139.8,166.1,139.6,166.2z"/>
							<path class="st0" d="M131.4,161.7c-6,4-11.8,8-17.3,12.8c0.1-0.2,0.2-0.3,0.3-0.5c0.1-0.2-0.1-0.3-0.2-0.3
								c-1,0.3-1.8,1.1-2.7,1.7c-1.6,1-3.3,2-4.9,2.8c-3.3,1.6-5.8,4.1-8.9,5.9c-0.1,0-0.1,0.2,0,0.2c0.3-0.1,0.6-0.2,0.9-0.4
								c1.3,0,2.9,0.9,4.3,0.8c1.9-0.1,3.9-1.1,5.4-2c1.4-0.9,2.7-2,3.6-3.4c0.8-1.3,1.2-2.7,1.8-4
								C119.7,171.1,125.5,166.3,131.4,161.7C131.5,161.8,131.4,161.7,131.4,161.7z"/>
							<path class="st12" d="M107.9,182.1c-1.9,1.2-4.1,1.9-6.3,2c-1.1,0-1.8-0.5-2.6-0.4c2.3-1.2,4.1-3.1,6.4-4.4
								c2.8-1.5,5.5-3.2,8.3-4.9c-0.7,0.4-1.1,2-1.5,2.9C111.3,179.4,109.8,181,107.9,182.1z"/>
							<path class="st12" d="M95.3,180.3c-6-1.2-12.1-1.4-18.1-2.6c0,0,0,0,0,0c5.9,1.5,12,2.3,18,2.7
								C95.3,180.5,95.4,180.3,95.3,180.3z"/>
							<path class="st12" d="M141.1,194.5c-0.9-1.1-2.1-1.9-3.2-2.9c0,0-0.1,0,0,0c0.9,1,1.9,2.3,3.1,3
								C141.1,194.7,141.2,194.6,141.1,194.5z"/>
						</g>
						<g>
							<path class="st13" d="M66.6,191.7c0,0.4-0.3,0.8-0.8,0.8c-0.4,0-0.8-0.3-0.8-0.8c0-0.4,0.3-0.8,0.8-0.8
								C66.2,190.9,66.6,191.2,66.6,191.7z"/>
							<path class="st13" d="M70.2,183c0,0.4-0.3,0.7-0.7,0.7c-0.4,0-0.7-0.3-0.7-0.7c0-0.4,0.3-0.7,0.7-0.7
								C69.9,182.4,70.2,182.7,70.2,183z"/>
							<path class="st13" d="M77.8,177.1c0,0.4-0.3,0.7-0.7,0.7c-0.4,0-0.7-0.3-0.7-0.7c0-0.4,0.3-0.7,0.7-0.7
								C77.6,176.4,77.8,176.7,77.8,177.1z"/>
							<path class="st13" d="M69.5,200.1c0,0.4-0.3,0.7-0.7,0.7c-0.4,0-0.7-0.3-0.7-0.7c0-0.4,0.3-0.7,0.7-0.7
								C69.2,199.5,69.5,199.8,69.5,200.1z"/>
							<path class="st13" d="M78.3,200.8c0,0.4-0.3,0.7-0.7,0.7c-0.4,0-0.7-0.3-0.7-0.7c0-0.4,0.3-0.7,0.7-0.7
								C78,200.1,78.3,200.4,78.3,200.8z"/>
							<path class="st13" d="M83,207.4c0,0.4-0.3,0.7-0.7,0.7s-0.7-0.3-0.7-0.7c0-0.4,0.3-0.7,0.7-0.7S83,207,83,207.4z"/>
							<path class="st13" d="M92.2,204.3c0,0.5-0.4,1-1,1c-0.5,0-1-0.4-1-1c0-0.5,0.4-1,1-1C91.8,203.3,92.2,203.7,92.2,204.3z"/>
							<path class="st13" d="M99.4,209.3c0,0.4-0.3,0.7-0.7,0.7c-0.4,0-0.7-0.3-0.7-0.7c0-0.4,0.3-0.7,0.7-0.7
								C99.1,208.6,99.4,208.9,99.4,209.3z"/>
							<path class="st13" d="M107.1,204.1c0,0.5-0.4,1-1,1c-0.5,0-1-0.4-1-1c0-0.5,0.4-1,1-1C106.7,203.1,107.1,203.5,107.1,204.1z"
								/>
							<path class="st13" d="M115.4,205.8c0,0.5-0.4,0.9-0.9,0.9c-0.5,0-0.9-0.4-0.9-0.9c0-0.5,0.4-0.9,0.9-0.9
								C115,205,115.4,205.4,115.4,205.8z"/>
							<path class="st13" d="M121.5,197.7c0,0.5-0.4,0.9-0.9,0.9c-0.5,0-0.9-0.4-0.9-0.9c0-0.5,0.4-0.9,0.9-0.9
								C121.2,196.8,121.5,197.2,121.5,197.7z"/>
							<path class="st13" d="M129.1,197.6c0,0.5-0.4,0.9-0.9,0.9c-0.5,0-0.9-0.4-0.9-0.9c0-0.5,0.4-0.9,0.9-0.9
								C128.7,196.7,129.1,197.1,129.1,197.6z"/>
							<path class="st13" d="M131.9,190.3c0,0.5-0.4,0.9-0.9,0.9c-0.5,0-0.9-0.4-0.9-0.9c0-0.5,0.4-0.9,0.9-0.9
								C131.5,189.4,131.9,189.8,131.9,190.3z"/>
							<path class="st13" d="M138.9,187c0,0.5-0.4,0.9-0.9,0.9c-0.5,0-0.9-0.4-0.9-0.9c0-0.5,0.4-0.9,0.9-0.9
								C138.5,186.2,138.9,186.6,138.9,187z"/>
							<path class="st13" d="M144,174.5c0,0.5-0.4,0.9-0.9,0.9s-0.9-0.4-0.9-0.9c0-0.5,0.4-0.9,0.9-0.9S144,174,144,174.5z"/>
							<path class="st13" d="M143.1,167.2c0,0.5-0.4,0.9-0.9,0.9c-0.5,0-0.9-0.4-0.9-0.9c0-0.5,0.4-0.9,0.9-0.9
								C142.8,166.3,143.1,166.7,143.1,167.2z"/>
							<path class="st13" d="M137.3,162.5c0,0.5-0.4,0.9-0.9,0.9c-0.5,0-0.9-0.4-0.9-0.9c0-0.5,0.4-0.9,0.9-0.9
								C137,161.6,137.3,162,137.3,162.5z"/>
							<path class="st13" d="M138.8,180.1c0,0.5-0.4,0.9-0.9,0.9c-0.5,0-0.9-0.4-0.9-0.9c0-0.5,0.4-0.9,0.9-0.9
								C138.4,179.3,138.8,179.6,138.8,180.1z"/>
						</g>
						<g>
							<path class="st14" d="M148.1,178.8c1.5-1.5,2-3.9,0.1-5.3c-1.1-0.8-1.7-1.4-0.7-2.7c0.3-0.3,0.5-0.9,0.6-1.3
								c0.3-1.3-1.8-2-1.3-3.1c-0.2,0.3-0.4,0.5-0.4,0.9c-0.1,0.5,0,1,0.1,1.4c0.9,1.2-0.1,1.9-0.6,3.1c-0.2,0.6,0,1,0.3,1.5
								c0.2,0.4,0.5,0.6,0.8,0.9c1.2,1.2,1.6,2.7,0.5,4c-0.7,0.8-1.5,1.4-2.1,2.3c-1.5,2.4,1.9,3.8,1.6,6.3
								c-0.1-0.1-0.3-0.2-0.5-0.3c-0.5-0.2-0.9-0.6-1.3-0.9c0,0-0.1,0-0.1,0.1c0.3,0.3,0.7,0.6,1,0.9c0.2,0.2,0.5,0.4,0.7,0.5
								c-0.5,1.8-2.5,2.5-3.9,3.7c-0.7,0.5-1.5,1-1.7,1.9c-0.5,2,0.6,3.4-1.3,5.1c-1.2,1.2-3.2,1.6-4.8,1.8c-0.1,0-0.2,0-0.3,0
								c-0.3-0.7-0.9-1.2-1.4-1.8c0,0-0.1,0-0.1,0c0.4,0.6,0.7,1.2,1.2,1.8c-0.9,0.1-1.5,0.2-2.3,0.8c-0.6,0.5-1,1.4-1.2,2.2
								c-0.6,1.9-2.1,2.7-3.8,3.1c-0.2-0.6-0.6-1.2-0.9-1.8c-0.4-0.8-0.8-1.7-1.4-2.4c0,0-0.1,0-0.1,0.1c0.5,0.9,0.8,1.9,1.2,2.8
								c0.1,0.3,0.3,1,0.6,1.4c-0.7,0.1-1.4,0.2-2.1,0.2c-0.2,0-0.5,0-0.8,0.1c0,0,0,0-0.1,0c-1,0-1.7,0.4-2.3,1
								c-0.1-0.2-0.1-0.3-0.2-0.5c-0.1-0.4-0.4-0.7-0.4-1.1c0,0-0.1,0-0.1,0c0,0.4,0.2,0.8,0.2,1.2c0,0.2,0.1,0.5,0.2,0.6
								c-1.2,1.4-1.8,3.8-3.9,4.5c-1.7,0.5-3.2-0.1-4.6-0.7c-0.2-0.7-0.5-1.5-0.7-2.2c0-0.1-0.1,0-0.1,0c0.1,0.5,0.2,1.1,0.3,1.6
								c0,0.1,0.1,0.2,0.1,0.4c-1.2-0.4-2.5-0.7-3.9,0c-1.3,0.6-2.1,1.9-3.2,2.8c-0.8,0.7-1.8,1.1-2.9,1.1c0,0,0.1-0.1,0.1-0.1
								c0-0.9-0.3-1.7-0.4-2.5c0-0.1-0.1,0-0.1,0c0,0.8,0,1.8,0.3,2.6c0,0,0,0,0,0c-1.4,0-2.8-0.5-3.9-1.2c-1.4-0.9-2.6-1.3-3.8-1.4
								c-1.8-0.3-3.3,0.6-5.2,1.3c0.6-1.3,0.6-2.9,1.1-4.3c0,0,0,0,0,0c-0.7,1.4-0.9,2.9-1.4,4.4c-0.4,0.1-0.9,0.3-1.3,0.4
								c-2.2,0.4-4.9-0.7-6.5-2.1c-1.3-1.2-1.8-2.2-3.7-2.1c-0.4,0-0.9,0.1-1.3,0.2c0.4-0.4,0.6-0.9,0.9-1.3c0.3-0.5,0.6-1,0.9-1.6
								c0,0,0,0,0,0c-0.5,1-1.3,1.8-1.8,2.8c0,0,0,0.1,0,0.1c-1.1,0.3-2.1,0.7-3.5,0.3c-1.3-0.3-1.8-1.2-2.1-2.2
								c0.8-0.5,1.4-1.3,2-1.9c0.9-0.9,1.8-1.8,2.6-2.7c0,0,0,0,0,0c-1.6,1.3-3.1,2.9-4.7,4.3c-0.1-0.7-0.2-1.4-0.4-2.1
								c-0.3-1.2-2.5-1.5-3.3-2.1c-1.6-1.2-1.6-2.8-0.9-4.5c-0.1-0.4-0.1-0.7-0.2-1.1c-0.2,0.8-0.5,1.6-0.7,2.6
								c-0.2,1.2,0.5,3.2,1.6,3.9c0.8,0.5,1.7,0.8,2.6,1.3c0.7,0.4,0.7,1.4,0.9,2.2c0,0.1,0,0.2,0,0.2c0.4,1.3,1.3,2.5,2.6,3
								c1.1,0.4,2.5,0.1,3.6-0.3c4.3-1.8,3.8,2,6.7,3.4c1.9,0.9,3.8,1.1,5.7,0.5c0.8-0.2,1.4-1,2.1-1.4c2.6-1.3,4.5-0.3,6.7,1.1
								c1.2,0.8,2.5,1,4,0.9c1,0,2-0.2,2.8-0.8c1.3-0.9,2.4-2.4,3.8-3.1c2-1,3.8,0,5.5,0.9c1.1,0.5,2.5,0.4,3.7,0.2
								c2.5-0.4,2.9-3.4,4.2-5.1c0.8-0.7,1.8-1,2.9-1c1.5,0,2.7,0.2,4.2-0.2c1-0.3,1.7-1,2.3-1.8c1.1-1.3,1.1-4.3,3.5-4.3
								c2.3,0,4.2,0.1,6-1.7c0.8-0.8,1.3-1.6,1.6-2.6c0.5-1.8-0.5-3,1.1-4.6c0.8-0.5,1.7-0.9,2.3-1.3c1-0.8,1.7-1.7,2.1-2.9
								c0.3-0.9,0-1.9-0.4-2.7c-0.5-1.1-2.2-2-1.2-3.5C146.6,180,147.4,179.4,148.1,178.8z"/>
							<path class="st14" d="M138,191.7C137.9,191.7,137.9,191.7,138,191.7c0.9,1.1,1.8,2.3,3,3c0.1,0.1,0.3-0.1,0.2-0.2
								C140.2,193.5,139,192.6,138,191.7z"/>
						</g>
					</g>
					<g>
						<path class="st12" d="M167.7,174c-1.4-0.8-2.9-0.9-4.3-0.5c0,0,0.1,0,0.1-0.1c-0.1,0-0.2,0.1-0.2,0.1
							c-0.4-2.7-0.3-5.2,0.6-7.8c0.8-2.6,2.2-5.1,3.6-7.4c2.7-4.4,4.7-9.8,4.8-15c0.3-11-6.1-20.6-15.9-25.4
							c-2.5-1.3-5.4-2.4-8.2-2.9c-5-1-10.3-1-15.4-0.7c-2.2,0.1-4.2,0.6-6.3,1.2c-0.3-1.5-0.3-3-0.3-4.5c0-0.1,0-0.2,0-0.4
							c0.4-3.2,1.9-6.1,4.6-8.3c3.5-2.8,7.8-4.6,11.8-6.7c2.9-1.6,6.5-3.6,8.4-6.5c0.7-1.1,1.2-2.2,1.6-3.5c3,0.7,5.7-2.4,5.4-5.4
							c-0.3-3.4-4.9-4.9-7.3-2.5c-1.1,1.1-1.7,2.3-1.5,3.8c0,1.3,0.7,2.6,2,3.5c0.1,0.1,0.2,0.1,0.4,0.2c-3.7,2.9-12.8-0.1-16.3-0.9
							c-5.2-1.1-10.4-1.7-15.8-1.6c-5.3,0.1-10.8,0.5-16,1.9c-5.1,1.4-9.6,3.2-14.1,6c-7.9,4.7-14,13.6-15,22.9
							c-0.1,1.3-0.2,2.5-0.2,3.8c-2.2-0.6-4.4-1-6.8-1c-3.2,0-7.1,0.5-10.1,1.8c-5.9,2.6-11.4,6.8-14.5,12.5
							c-3.4,6.3-4.7,13.3-4.1,20.4c0.3,3.7,1.6,7.6,3,10.9c0.9,2,1.4,4.1,1.6,6.2c0.1,1.4-0.2,2.8-0.7,4.1c-0.2,0.5-0.7,1.3-1.2,1.9
							c-0.5-2.1-2.6-3.6-5.1-2.5c-1.5,0.6-2.4,2.2-2.1,3.8c0.2,1.1,1,2.1,2,2.6c0.3,0.1,0.6,0.3,0.8,0.4c1,0.3,2.3,0.2,3.1-0.4
							c0.3-0.3,0.7-0.6,0.9-1c0.3-0.6,0.5-1.2,0.5-1.8c3.2,1.2,7.3-1.3,9.1-4c3-4.6,1.1-9.7,0.6-14.7c-0.3-3.1,0.3-7.2,2.3-9.7
							c2.3-3,5.6-3.5,9.2-3.1c3.3,0.3,6.5,2.4,9,4.5c1.7,1.5,3.1,3.7,5.4,4.3c0.2,0.4,0.5,0.7,0.8,1.1c2.2,3,0.5,6.7-0.7,9.8
							c-0.8,2-1.5,3.6-0.6,5.7c0.8,1.9,2.4,3.2,4,4.4c2,1.5,4.2,2.7,6.2,4.1c2.1,1.4,3.8,3.1,5.7,4.7c0,0.3,0.1,0.6,0.2,0.9
							c0.4,0.9,1.3,1.3,2.2,1.6c3.5,1.5,5.6-1.8,8-3.6c3.3-2.6,7.4-3.6,10.7-6.2c0.2-0.2,0.5-0.4,0.7-0.6c3-1,5.9-2,8.7-3.6
							c2.9-1.7,5.3-4.3,7.2-7c2.7-4.1,3.7-8.9,6.2-13.1c1.8-3.2,4.4-4.9,7.7-6.3c4.2-1.8,8.9-1.9,12.8,0.4c4.4,2.7,2.7,7.3,1.9,11.4
							c-0.6,3.1-0.6,6.2,0.1,9.2c0.4,1.7,1.1,3.1,1.9,4.6c0.7,1.2,1.4,2.8,2.4,3.7c-1.9,0.9-3.2,2.8-2.8,5.3c0.8,4.3,7.7,5,9.5,0.6
							C170.5,177.6,169.9,175.2,167.7,174z"/>
						<path class="st13" d="M40.6,175.2L40.6,175.2c-0.1,0.4-0.2,0.7-0.3,1c-0.2,0.3-0.3,0.7-0.5,1c-0.3,0.3-0.6,0.5-1,0.7
							c-0.3,0.1-0.6,0.2-0.9,0.2c-0.8,0-1.5-0.3-2-0.9c-0.7-0.7-1-1.8-0.9-2.8c0-0.3,0.1-0.5,0.2-0.8c0.1-0.2,0.3-0.4,0.4-0.6
							c0.4-0.5,0.8-0.9,1.4-1c0.4-0.1,1,0,1.4,0c0.4,0.1,0.9,0.3,1.2,0.5C40.5,173.2,40.8,174.2,40.6,175.2z"/>
						<path class="st13" d="M150,79.3c0.4-0.8,1.1-1.4,1.9-1.8c1.8-0.7,4.3-0.1,5.3,1.4c0.7,1.1,0.5,2.7,0,3.8
							c-0.2,0.4-0.4,0.8-0.7,1.1c-1,1.2-2.6,1.5-4,1.1c0,0-0.1-0.1-0.2-0.1c0,0-0.1,0-0.1,0c-0.1,0-0.3-0.1-0.4-0.2
							C149.8,83.9,149.1,81.1,150,79.3z"/>
						<path class="st14" d="M150.6,86.6c0.4-0.1,0.7-0.3,1-0.5c-0.8,2-2.2,3.6-3.9,4.9c-3.6,2.7-7.6,4.7-11.6,6.8
							c-3.3,1.8-6.8,3.8-8.9,7c-1.6,2.4-1.9,5.4-1.5,8.1c0,1.1,0.2,2.2,0.4,2.5c-0.5,0.1-0.9,0.2-1.4,0.4c-5,1.3-9.6,3.8-13.7,6.8
							c-2.2,1.6-4.2,3.4-6.2,5.4c-1,1-1.9,2.1-2.8,3.2c-0.5,0.6-0.8,1.5-1.4,2.1c-0.1,0.1-0.1,0.1-0.1,0.2c-0.3,0.1-0.5,0.3-0.8,0.4
							c-4.4,2.3-8.9,5.6-11.5,9.8c-0.4,0.6-0.8,1.2-0.8,1.9c0,0.1-0.1,0.1-0.3,0c-0.1-0.8-0.6-1.9-0.8-2.6c-0.3-1.2-0.5-2.4-0.7-3.6
							c-0.4-2.6-0.8-5-0.8-7.6c0-4.9,1-9.6,2.3-14.3c2.5-9,8.5-18.2,16.3-23.5c7.9-5.4,17.8-6.7,27.1-6.3c2.3,0.1,4.5,0.2,6.7,0.5
							c1.8,0.2,3.5,0.4,5.3,0.3c1.9-0.1,3.9-0.6,5.7-1.1C149.1,87.2,149.9,87,150.6,86.6z"/>
						<path class="st13" d="M75.1,117.3C75.1,117.3,75.1,117.3,75.1,117.3c0-1.9,0.2-3.7,0.5-5.4c1-5.3,3.5-10.3,7-14.4
							c3.6-4.2,8.1-7.1,13.1-9.4c10-4.6,21.7-5.6,32.5-4.2c5.3,0.7,10.4,2.3,15.7,3.2c0.8,0.1,1.9,0.2,3,0.2
							c-0.7,0.1-1.5,0.3-2.1,0.4c-2.2,0.4-4.3,0.2-6.5,0c-4.2-0.5-8.8-1.1-13.1-0.6c-4.5,0.6-9.1,0.5-13.4,2.1
							c-4.3,1.5-8.6,3.9-11.9,7c-6.7,6.2-11.3,14.8-13.7,23.6c-1.2,4.6-1.8,9.1-1.8,13.9c0,2.4,0.7,4.5,1.1,6.8
							c0.3,1.6,0.8,3.6,1.6,5.1c-1-0.6-3.1-2.1-3.2-2.3c-1.2-1.1-2.4-2.6-3.4-4.1c-0.6-0.6-1-1.4-1.3-2.2c0,0,0,0,0,0
							c-0.2-0.5-0.4-1-0.6-1.5c-0.8-2.6-1.5-5.2-2.1-7.8c-0.8-3.1-1.3-6.4-1.3-9.7c0,0,0-0.1,0-0.1V117.3z"/>
						<path class="st14" d="M42.6,162.3c-1.3-3.7-2.9-7.5-3.2-11.5c-0.3-3.9,0-7.8,0.9-11.6c1-3.9,2.7-8,5-11.3
							c2.2-3.1,5.8-5.7,9.1-7.6c5.9-3.4,13.3-4.3,19.9-2.9c0,3.5,0.6,7.1,1.4,10.5c0.6,2.6,1.4,5.1,2.3,7.7c0.2,0.6,0.5,1.1,0.7,1.6
							c-1.7,1.7-2.8,3.8-3.3,6.1c-0.2-0.8-0.3-1.6-0.6-2.3c-0.7-1.5-1.9-3-2.9-4.3c-1.9-2.5-5-4-7.9-4.7c-5.9-1.5-11,1-15,5.3
							c-4.2,4.5-5.2,10.6-5.1,16.5c0.1,6,2.8,14-1.1,19.1c0.3-0.5,0.5-1,0.6-1.3C44.4,168.5,43.7,165.3,42.6,162.3z"/>
						<path class="st13" d="M71.1,146.6c-2-1.6-4.3-3.1-6.8-3.7c-4.5-1.2-8.9,0.5-11.7,4.1c-1.3,1.7-1.7,4.4-2,6.4
							c-0.5,3,0.2,5.8,0.7,8.7c0.5,3.3,0.2,6.3-1.6,9.1c-1.5,2.3-5.3,4.4-8.2,3.6c0,0,0-0.1,0-0.1c4-2.6,4.1-7.7,3.6-12
							c-0.7-6.5-1.8-13.7,0.9-19.9c2.7-6.3,8.6-11.5,15.7-10.9c3.6,0.3,6.9,2,9.4,4.6c1.2,1.3,2.1,2.7,3,4.1c0.6,0.9,0.7,2,1.2,2.9
							c0,0.2-0.1,0.3-0.1,0.5c-0.3,1.2-0.4,2.5-0.2,3.6c0.3,1.6,0.8,2.9,1.6,4.2C74.6,150.6,73,148.2,71.1,146.6z"/>
						<path class="st0" d="M113.2,173.7c-2.2,2.3-5.7,3.7-8.4,5.3c-2.2,1.3-4.1,3.6-6.5,4.6c-1.5,0.6-3.8,0.3-4.9-1
							c-0.6-0.8-0.7-1.7-1-2.7c0,0,0,0,0,0c0,0.5,0,0.9,0,1.3c-2.1-2.9-6-4.5-8.9-6.4c-2.1-1.3-3.7-2.6-5.1-4.6
							c-1-1.4-1.8-2.7-1.4-4.6c0.3-1.2,0.8-2.4,1.2-3.5c1.3-3.8,1.6-6.9-0.6-10.3c-1.8-2.7-1.9-5.8-1.2-8.8c0.6-1.9,1.5-3.7,2.7-5.3
							c0.2,0.3,0.4,0.6,0.6,1c0.5,1.1,1.1,2.1,1.8,3.1c0.9,1.1,2.1,2,3.2,2.8c0.8,0.6,2.1,1.6,3.1,1.8c0,0,0.1,0,0.1-0.1
							c1.5-2.6,3-4.7,5.3-6.7c2.4-2,4.9-3.9,7.5-5.7c0.7,2.1,2.1,3.9,3.9,5.4c3.5,2.9,6.9,5.7,9.9,9.2c2.8,3.4,3.7,8.4,3.5,12.7
							c-0.2,3.3-0.8,6.6-2.3,9.6C114.9,171.7,114.2,172.7,113.2,173.7z"/>
						<path class="st14" d="M160.4,169.1c-1.1-2.3-1.7-4.8-1.9-7.3c-0.3-3.9,1.6-7.3,1.9-11.1c0.3-3.4-1-5.4-4-7.1
							c-3.1-1.8-6.7-1.5-10.1-0.7c-3.1,0.7-6.6,2.4-8.8,4.8c-2.2,2.5-4.6,6.1-5.4,9.4c-1.1,4.2-4.2,8.4-7.4,11.3
							c-3,2.7-6.8,4.2-10.5,5.8c0.5-0.5,0.9-1.1,1.2-1.8c3.9-5.7,3.7-14.1,1.6-20.4c-0.6-1.7-1.6-3.4-2.9-4.9c0.7-1.5,1.2-3,2-4.5
							c1.1-1.9,2.5-3.7,3.9-5.3c2.8-3.2,6.7-5.5,10.4-7.4c3.7-1.9,8.3-2.3,12.4-2.3c4.3,0,8.4,1.6,12,3.7c3.3,2,5.9,4,7.6,7.6
							c2,4.2,2,9.1,1.1,13.6c-1.4,6.7-4.9,13.4-1.5,19.8C161.4,171.2,160.9,170.1,160.4,169.1z"/>
						<path class="st13" d="M162.6,173c-4.9-9,2.5-17.7,2-27.1c-0.2-3.5-1.1-6.8-3-9.8c-2-3.3-6.5-5.5-9.9-7.1
							c-6.8-3.2-16-2.7-22.6,0.8c-3.3,1.7-6.5,3.8-9.1,6.5c-1.4,1.5-2.7,3.1-3.7,4.8c-1.1,1.9-1.6,3.8-2.3,5.8
							c-1.5-1.8-3.2-3.4-4.8-4.8c-2.7-2.3-6-4.5-7.9-7.5c0-0.3-0.1-0.5-0.1-0.8c0-0.2,0-0.4,0.1-0.6c0.8-0.8,1.4-1.9,2-2.7
							c1.8-2.2,4-4.2,6.3-6c6.1-4.9,13.2-8,21-9.3c7.9-1.3,16.5-0.7,23.8,2.8c2.4,1.2,4.9,2.6,7.1,4.3c2.8,2.2,5.2,4.9,7.1,8
							c3,5.1,3.6,11.4,2.5,17.1c-1.1,5.3-3.7,9.8-6.3,14.5c-2,3.6-2.6,7.4-1.8,11.4C162.9,173.3,162.8,173.2,162.6,173z"/>
						<path class="st12" d="M109.8,147.9c-2.5-0.4-6.2-0.8-8.6,0.1c-1.6,0.6-2.7,1.9-3.7,3.3c-0.6,0.9-1.4,1.7-2,2.6
							c-0.1,0.3-0.5,0.9-0.1,1c0.7,0.2,1.8-1.3,2.2-1.7c1.2-1.2,2.4-2.4,3.9-3.3c2.4-1.4,5.5-1.5,8.1-1.9
							C109.9,148.1,109.9,147.9,109.8,147.9z"/>
						<path class="st12" d="M83.9,152.6c0-0.1-0.1-0.1-0.1-0.2c-0.1-0.2-0.3-0.3-0.5-0.5c-1.8-1.8-4.3-2.7-6.2-0.6c0,0,0,0,0,0
							c0,0,0,0,0,0.1c-0.1,0.1-0.2,0.2-0.2,0.3c0,0,0,0.1,0,0.1c0,0,0,0,0.1,0c0,0,0,0,0-0.1c0.1-0.1,0.3-0.2,0.4-0.3
							c1.4-0.4,3.3,0.3,4.5,1c1.5,1,2.7,2.1,3.8,3.5c0,0.1,0.1,0,0.1-0.1C85.4,154.7,84.7,153.6,83.9,152.6z"/>
						<path class="st12" d="M90.6,164.9c-1.1-1.4-2.9-2.4-4.7-2.7c1.6-1.4,1.9-3.8,0.3-5.3l0,0c1.2,1.6,0.6,3.8-0.6,5.3
							c-0.7-0.1-1.5-0.1-2.2,0c-3.5,0.6-5.9,4.3-2.9,7.6c2.5,2.7,8.3,4,10.8,0.5C92.7,168.2,92,166.3,90.6,164.9z"/>
						<path class="st13" d="M82,170.6c-1.1-0.7-1.8-1.8-2.2-3c-0.2-0.5-0.2-1.2-0.2-1.7c0.1-0.5,0.3-1,0.6-1.4
							c0.7-0.9,1.8-1.5,2.9-1.8c0.4-0.1,0.8-0.1,1.2-0.2c0.4,0,0.8-0.1,1.3,0c0.4,0,0.8,0.1,1.2,0.2c0.6,0.1,1.2,0.4,1.7,0.7
							c1,0.6,2,1.5,2.5,2.6c0.3,0.6,0.6,1.3,0.6,1.9c0.3,3.5-4,4.3-6.5,3.9C84.2,171.7,82.8,171.1,82,170.6z"/>
						<path class="st12" d="M107.3,157.6c0.1-0.2,0.3-0.3,0.4-0.5c0.7-0.9,1.6-1.9,2.3-2.9c0.1-0.3,0.3-0.6,0.4-0.8
							c-0.2,0-0.4,0-0.6-0.1c0,0,0,0,0,0c-2.8-0.1-5.8,0-8.4,1c-2.7,1.1-2.6,4.3-2.6,6.6c0,0,0,0,0,0c0.2-0.8,0.3-1.5,0.6-2.2
							c1,1.2,4.5,0.5,5.6,0.2c0.1,0,0.2-0.1,0.2-0.1c-0.9,0.8-1.5,1.9-2,2.9c0,0,0,0,0,0c1.6-2.3,4.7-4,7.4-4.8c0.1,0,0.1-0.1,0-0.1
							C109.6,157,108.4,157.2,107.3,157.6z"/>
						<path class="st0" d="M102.6,158.7c-0.5,0-2.3,0.2-3.1-0.2c0.5-1.6,1.4-2.9,3.2-4c2.2-1.2,5.1-0.8,7.5-1
							c-0.9,1.4-2.3,3-3.5,4.1C105.5,158.6,104.1,158.6,102.6,158.7z"/>
						<path class="st12" d="M83,155.6c-1.4-0.8-3.3-1-4.8-0.2c0,0,0,0.1,0,0c0.2-0.1,0.4-0.1,0.6-0.2c0,0,0,0,0,0
							c0,1.1,0.1,2.4,0.6,3.4c0,0-0.1,0-0.1,0c-0.1,0-0.1,0-0.2-0.1c-0.1-0.1-0.2-0.1-0.2,0c0,0,0,0,0,0c0-0.1,0,0,0-0.1
							c0,0-0.1,0-0.1,0.1c0.4,0.4,0.8,0.7,1.2,1.1c0.6,0.5,1.1,1,1.7,1.4c0.1,0,0.2-0.1,0.1-0.1c-0.2-0.2-0.3-0.4-0.5-0.6
							c1.3,0.3,2.9-0.3,4.1-0.4c0,0,0,0,0,0c0.1,0.3,0.2,0.6,0.3,0.9c0,0.1,0.1,0,0.1,0C85.7,158.8,84.8,156.6,83,155.6z"/>
						<path class="st0" d="M81.4,159.6c-1.7-0.5-2.1-2.9-2.5-4.4c0,0,0,0,0,0c1.5-0.3,3.3,0.4,4.5,1.3c1,0.8,1.7,1.9,2.1,3.1
							C84.1,159.6,82.8,160.1,81.4,159.6z"/>
						<path class="st12" d="M107.6,168.4c-0.4-0.4-0.8-0.9-0.8-1.6c0-0.2-0.2-0.4-0.4-0.4c-0.4,0-0.9,0.3-1.3,0.4
							c-0.5,0.1-1.1,0.2-1.5,0.3c0,0,0,0,0,0c0,0,0,0,0,0c0,0,0,0,0,0c0.4,0.3,1,0.3,1.6,0.2c-1,0.5-2,1.3-2.8,1.8
							c-2.1,1.3-4,2.5-6.3,3.3c-2.5,0.9-5.2,1.2-7.9,0.9c-1-0.1-3.8-0.8-4.6-0.2c0,0,0,0,0,0c0,0,0,0,0,0c0,0,0,0,0,0
							c0,0,0,0.1,0,0.1c0,0,0,0,0.1,0.1c0.4,0.8,1.5,0.8,2.3,1.1c0.9,0.3,2.1,0.6,3.1,0.6c0.6,0.1,1.2,0.2,1.7,0.3
							c1.1,1.1,1.2,3.2,2.8,4c1.6,0.9,3.7,0.9,5.4,0.3c2-0.8,2.8-2,3.4-4c0.8-2.9,1.9-6,4.2-8c0,0.1,0.1,0.2,0.1,0.2
							c0.2,0.3,0.6,0.6,0.9,0.7C107.6,168.6,107.7,168.5,107.6,168.4z"/>
						<path class="st13" d="M86.6,174.3c-0.1,0-0.2,0-0.3-0.1c-0.7-0.2-2-0.3-2.7-0.8c0.3-0.1,2.3,0.1,2.4,0.2
							c0.9,0.1,1.9,0.2,2.9,0.2c1.9,0,3.9,0.1,5.8-0.5c2.1-0.7,4-1.6,6-2.7c1.5-0.9,3.4-2.9,5.3-3.2c-3.2,1.9-5.6,4.8-9,6.4
							C93.7,175.4,90,174.8,86.6,174.3z"/>
						<path class="st12" d="M101.2,171.8c-1.2,1.5-1.8,3.7-3.6,4.7c-1.9,1-3.4,0.7-4.8-0.8c-0.1-0.1-0.1-0.1-0.2-0.2
							c1.1,0,2.1-0.2,3.2-0.5C97.9,174.3,99.6,173.1,101.2,171.8z"/>
						<path class="st13" d="M100.9,176.9c-1.4,2.3-5.5,3.9-7.8,2c-1-0.8-1.2-2.7-2.2-3.5c0.2,0,0.4,0,0.6,0.1c1,0.5,1.7,1.4,2.7,2
							c0.9,0.5,2.2-0.1,3-0.4c1.1-0.4,1.9-1,2.5-2.1c1.2-2,2.3-3.5,3.9-5.2c0,0,0,0,0,0c0.6-0.5,1.2-1,1.8-1.5
							C103.2,170.7,102.6,174.1,100.9,176.9z"/>
						<path class="st13" d="M169.1,179.4c-0.5,1.7-2.2,2.7-3.8,2.8c-0.5,0-1.1,0-1.5-0.1c-1.6-0.4-2.6-1.5-3.1-3
							c-0.3-1.1-0.2-2.2,0.3-3.1c1.1-1.7,3.6-2.6,5.8-2.1c1.7,0.5,2.5,2.1,2.6,3.7C169.3,178.1,169.2,178.8,169.1,179.4z"/>
					</g>
					<path class="st12" d="M107.3,153.7c-0.5-0.5-1.4-0.3-2-0.2c-0.8,0.1-1.4,0.1-1.8,0.9c0,0,0,0,0,0c-0.4,0.6-0.6,1.4-0.5,2.1
						c0.3,1.7,2.9,2.1,4,1.2c0.7-0.5,1.1-1.2,1.2-2.1C108.3,154.7,107.8,154.2,107.3,153.7z"/>
					<path class="st12" d="M82.5,155.6c-0.8-0.2-1.5,0.2-1.9,1.1c-0.6,1.5,0.4,3,1.9,3.3c1.2,0.3,2.1-0.7,2.1-1.8
						C84.7,157.4,83.6,155.4,82.5,155.6z"/>
				</g>
				<path class="st12" d="M132,94.1c7.3-1.6,14.1-3.1,19.4-7.9c-0.3,0.2-0.5,0.3-0.8,0.4c-0.7,0.3-1.5,0.5-2.2,0.8
					c-1.8,0.6-3.8,1-5.7,1.1c-1.8,0.1-3.5-0.1-5.3-0.3c-2.3-0.3-4.4-0.4-6.7-0.5c-9.4-0.5-19.2,0.9-27.1,6.3
					c-7.8,5.3-13.7,14.5-16.3,23.5c-1.3,4.7-2.3,9.4-2.3,14.3c0,2.6,0.4,5.1,0.8,7.6c0.2,1.2,0.5,2.4,0.7,3.6
					c0.2,0.7,0.7,1.8,0.8,2.6c0.2,0.1,0.3,0.1,0.3,0c0-0.7,0.4-1.3,0.8-1.9c2.2-3.4,5.6-6.3,9.1-8.5c0.4-9.1,2.5-22,10.9-30.5
					C115.2,97.8,123.7,95.9,132,94.1z"/>
				<path class="st12" d="M84.1,99.6c2-2.5,4.4-4.8,6.8-6.5c6.7-4.7,13.8-7.4,21.8-8.4c3.4-0.4,7.1-0.6,11-0.5
					c3.4,0.1,7.1,0.4,11,0.9c-2.2-0.5-4.3-0.9-6.5-1.2c-10.8-1.4-22.5-0.4-32.5,4.2c-5,2.3-9.5,5.3-13.1,9.4c-3.5,4-6,9.1-7,14.4
					c-0.3,1.8-0.5,3.6-0.5,5.4c0,0,0,0,0,0.1v0.6c0,0,0,0.1,0,0.1c0,3.3,0.5,6.5,1.3,9.7c0.6,2.6,1.3,5.2,2.1,7.8
					c0.2,0.5,0.4,1,0.6,1.5c0,0,0,0,0,0c0.3,0.8,0.7,1.6,1.3,2.2c0.7,1.1,1.5,2.2,2.4,3.1c-1.7-3.8-3.5-8.2-4.2-11.3
					C75.9,118.9,78,107.2,84.1,99.6z"/>
				<path class="st12" d="M65.8,126.4c-2.7-0.9-5.7-0.9-8.8,0.1c-9.9,3-15.9,12.3-15.2,23.7c0.2,3.9,0.9,7.9,1.5,11.7l0.3,1.8
					c0.1,0.4,0.1,0.7,0.2,1.1c0.4,1.9,0.7,4.1,0.3,5.9c1.9-5-0.1-11.7-0.2-16.8c-0.1-5.9,0.9-12,5.1-16.5c4-4.3,9.1-6.8,15-5.3
					c2.9,0.8,6.1,2.2,7.9,4.7c1,1.3,2.2,2.8,2.9,4.3c0.3,0.7,0.4,1.6,0.6,2.3c0.3-1.7,1-3.2,2-4.6c-0.7-2.5-2.1-5.2-3.9-7.6
					C72.1,129.3,68.5,127.3,65.8,126.4z"/>
				<path class="st12" d="M57.8,138.3c-3.4,0.7-6,2.3-7.6,4.7c-2.3,3.4-2.7,8.7-1.2,15.5c1.2,5.6,0.7,10-1.5,13
					c-1.5,2.1-3.5,3.1-5.4,3.6c2.8,0.4,6.1-1.5,7.6-3.7c1.8-2.8,2.2-5.8,1.6-9.1c-0.5-2.9-1.1-5.8-0.7-8.7c0.3-2,0.8-4.7,2-6.4
					c2.7-3.6,7.2-5.2,11.7-4.1c2.5,0.6,4.9,2.1,6.8,3.7c1.9,1.6,3.4,4,5.5,5.3c-0.8-1.3-1.3-2.6-1.6-4.2
					C71.2,143.1,64.6,136.9,57.8,138.3z"/>
				<path class="st12" d="M160.4,155.2l0.3-1.3c0.5-2.4,0.6-4.5,0.5-6.2c-0.1-2.5-1.5-5.1-3.6-7.1c-5.9-5.4-17.8-5.8-25.4,2.5
					c-3.5,3.8-6.4,8.7-9.3,15.9c-1.5,3.7-3.3,5.1-4.7,5.6c-0.4,2.8-1.3,5.4-2.8,7.7c-0.4,0.7-0.8,1.3-1.2,1.8
					c3.7-1.5,7.5-3.1,10.5-5.8c3.2-2.8,6.4-7.1,7.4-11.3c0.8-3.3,3.2-6.9,5.4-9.4c2.1-2.4,5.7-4,8.8-4.8c3.3-0.8,7-1,10.1,0.7
					c2.9,1.7,4.2,3.7,4,7.1c-0.3,3.8-2.2,7.1-1.9,11.1c0.1,1.6,0.4,3.3,0.9,4.8C159,162.8,159.7,158.9,160.4,155.2z"/>
				<path class="st12" d="M134.3,119c11-1.8,21.4,1.3,27.9,8.4c5.3,5.8,7.1,13.5,5,21.5c-0.1,0.2-7,18.4-4.3,23.9
					c-0.6-3.7,0.1-7.2,1.9-10.7c2.6-4.7,5.2-9.2,6.3-14.5c1.1-5.7,0.5-12-2.5-17.1c-1.9-3.1-4.2-5.8-7.1-8c-2.1-1.7-4.6-3.1-7.1-4.3
					c-7.3-3.5-15.9-4.1-23.8-2.8c-7.8,1.3-14.9,4.3-21,9.3c-2.2,1.8-4.4,3.8-6.3,6c-0.7,0.8-1.2,1.9-2,2.7c0,0.2-0.1,0.4-0.1,0.6
					c0,0.3,0.1,0.5,0.1,0.8c1.1,1.8,2.6,3.3,4.3,4.6C108,135.4,116.9,121.9,134.3,119z"/>
			</g>
			<path d="M36.9,172.3c0,0,2.7,0.3,2.1,3c-0.6,2.7-3.1,1.6-3.4,1c0,0,0.7,2.4,3.2,1.2C41.2,176.3,40.6,171.6,36.9,172.3z"/>
			<path d="M152.4,77.6c0,0,3.7,0.4,2.9,4.1c-0.8,3.7-4.7,1.8-5,1c0,0,1.6,3.4,5,1.8C158.7,82.8,157.6,76.5,152.4,77.6z"/>
			<path d="M163.7,174.2c0,0,4.2,0.4,3.3,4.3c-0.9,3.9-4.9,2.2-5.2,1.4c0,0,1.1,3.4,5,1.7C170.5,179.9,169.5,173.1,163.7,174.2z"/>
		</g>
		<path class="st0" d="M102,130.9c0,0,14-21.6,43.2-17.9C145.2,113,120,110.5,102,130.9z"/>
		<path class="st0" d="M101.3,83.8c0,0-19.8,5.4-23.9,22.3c-4.1,16.9,3.8,31.3,3.8,31.3S62.7,100.6,101.3,83.8z"/>
		<path class="st0" d="M71.8,115.5c0,0-12.7-4.5-25.9,9.9c0,0-7.9,9.8-5.6,25.3C40.2,150.6,36.3,114.8,71.8,115.5z"/>
		<path class="st0" d="M67.3,186.7l20.9-6.1C88.2,180.6,75.2,185.2,67.3,186.7z"/>
		<path class="st0" d="M72.5,177.5l17.1,0.2C89.6,177.7,78.1,178.5,72.5,177.5z"/>
		<path class="st0" d="M90.9,182.1l-20.3,10.8C70.6,192.9,82.2,188.9,90.9,182.1z"/>
		<path class="st0" d="M95,182.7l-14.5,13.4C80.5,196.1,89,190.4,95,182.7z"/>
		<path class="st0" d="M101.7,183.8l-6.4,16.3C95.3,200.1,99.9,190.7,101.7,183.8z"/>
		<path class="st0" d="M108.5,183l3.8,16.2C112.3,199.2,111.3,189.4,108.5,183z"/>
		<path class="st0" d="M116.2,175.6c-0.2,0,22.6-0.3,22.6-0.3S122.6,177.2,116.2,175.6z"/>
		<path class="st0" d="M112.4,175.3l17.8,7.4C130.2,182.7,117.5,178.2,112.4,175.3z"/>
	</g>
</g>
</svg>
